<?xml version="1.0" standalone="no"?> <!DOCTYPE svg PUBLIC "-//W3C//DTD SVG 1.0//EN" "http://www.w3.org/TR/2001/REC-SVG-20010904/DTD/svg10.dtd" > <svg xmlns="http://www.w3.org/2000/svg" width="100%" height="100%">
<defs >
<font horiz-adv-x="489" ><font-face
    font-family="Showtime"
    units-per-em="1000"
    panose-1="0 0 0 0 0 0 0 0 0 0"
    ascent="1049"
    descent="-249"
    alphabetic="0" />
<missing-glyph horiz-adv-x="500" d="M31 0V1049H469V0H31ZM438 31V1018H62V31H438Z" />
<glyph unicode=" " glyph-name="space" horiz-adv-x="500" />
<glyph unicode="!" glyph-name="exclam" horiz-adv-x="250" d="M0 799H250V1049H0V799ZM31 924Q31 959 58 988T125 1018Q160 1018 189 991T219 924Q219 888 192 858Q164 830 125 830Q89 830 59 857Q31 885 31 924ZM0 -249H250V1H0V-249ZM31 -124Q31 -88 58 -58Q86
-30 125 -30Q160 -30 189 -57T219 -124Q219 -159 192 -188T125 -218Q89 -218 59 -191Q31 -163 31 -124ZM84 763H160V202H84V763ZM84 131H160V55H84V131Z" />
<glyph unicode="&quot;" glyph-name="quotedbl" horiz-adv-x="250" d="M0 799H250V1049H0V799ZM31 924Q31 959 58 988T125 1018Q160 1018 189 991T219 924Q219 888 192 858Q164 830 125 830Q89 830 59 857Q31 885 31 924ZM0 -249H250V1H0V-249ZM31 -124Q31 -88
58 -58Q86 -30 125 -30Q160 -30 189 -57T219 -124Q219 -159 192 -188T125 -218Q89 -218 59 -191Q31 -163 31 -124ZM54 738H97V517H54V738ZM147 738H190V517H147V738Z" />
<glyph unicode="#" glyph-name="numbersign" horiz-adv-x="500" d="M0 799H500V1049H0V799ZM281 924Q281 959 308 988T375 1018Q410 1018 439 991T469 924Q469 888 442 858Q414 830 375 830Q339 830 309 857Q281 885 281 924ZM31 924Q31 959 58 988T125 1018Q160
1018 189 991T219 924Q219 888 192 858Q164 830 125 830Q89 830 59 857Q31 885 31 924ZM0 -249H500V1H0V-249ZM281 -124Q281 -88 308 -58Q336 -30 375 -30Q410 -30 439 -57T469 -124Q469 -159 442 -188T375 -218Q339 -218 309 -191Q281 -163 281 -124ZM31 -124Q31
-88 58 -58Q86 -30 125 -30Q160 -30 189 -57T219 -124Q219 -159 192 -188T125 -218Q89 -218 59 -191Q31 -163 31 -124ZM277 723L247 612H314L343 723H386L357 612H423L411 568H345L316 458H382L370 415H305L274 305H231L261 415H194L165 305H122L151 415H85L94
458H163L192 568H127L138 612H204L234 723H277ZM302 568H235L206 458H273L302 568Z" />
<glyph unicode="$" glyph-name="dollar" horiz-adv-x="500" d="M0 799H500V1049H0V799ZM281 924Q281 959 308 988T375 1018Q410 1018 439 991T469 924Q469 888 442 858Q414 830 375 830Q339 830 309 857Q281 885 281 924ZM31 924Q31 959 58 988T125 1018Q160 1018
189 991T219 924Q219 888 192 858Q164 830 125 830Q89 830 59 857Q31 885 31 924ZM0 -249H500V1H0V-249ZM281 -124Q281 -88 308 -58Q336 -30 375 -30Q410 -30 439 -57T469 -124Q469 -159 442 -188T375 -218Q339 -218 309 -191Q281 -163 281 -124ZM31 -124Q31 -88
58 -58Q86 -30 125 -30Q160 -30 189 -57T219 -124Q219 -159 192 -188T125 -218Q89 -218 59 -191Q31 -163 31 -124ZM277 768V698H329L297 666Q290 658 283 648T269 624L248 587Q240 571 240 540L241 512L251 481L278 410L291 374L303 339Q316 295 316 258Q316 231
313 217L301 183Q289 140 272 115H257V37H227V115H175Q183 126 194 144T216 184L231 214Q236 227 236 254L233 292Q231 309 223 328L196 393Q182 424 169 466L160 503L158 544Q158 578 165 593L181 629L202 667L225 698H249V768H277Z" />
<glyph unicode="%" glyph-name="percent" horiz-adv-x="500" d="M0 799H500V1049H0V799ZM281 924Q281 959 308 988T375 1018Q410 1018 439 991T469 924Q469 888 442 858Q414 830 375 830Q339 830 309 857Q281 885 281 924ZM31 924Q31 959 58 988T125 1018Q160
1018 189 991T219 924Q219 888 192 858Q164 830 125 830Q89 830 59 857Q31 885 31 924ZM0 -249H500V1H0V-249ZM281 -124Q281 -88 308 -58Q336 -30 375 -30Q410 -30 439 -57T469 -124Q469 -159 442 -188T375 -218Q339 -218 309 -191Q281 -163 281 -124ZM31 -124Q31
-88 58 -58Q86 -30 125 -30Q160 -30 189 -57T219 -124Q219 -159 192 -188T125 -218Q89 -218 59 -191Q31 -163 31 -124ZM25 654Q25 684 45 704T98 724Q132 724 152 704T173 653V392Q173 360 149 340Q135 331 124 328T98 324Q64 324 44 343Q25 365 25 394V654ZM76
647V400Q76 385 82 376Q88 373 99 371Q111 371 116 380L119 388L121 405V647Q121 664 115 670T98 679Q88 679 81 671Q78 665 76 647ZM353 717L182 80H142L312 717H353ZM373 147Q373 128 377 124T396 118Q409 118 414 127L418 152V394Q418 408 412 417Q407 422 394
424Q385 424 377 417L373 394V147ZM322 140V400Q322 431 342 451T395 472Q428 472 449 451T470 399V137Q470 108 446 87L421 75L394 71Q364 71 341 90Q322 112 322 140Z" />
<glyph unicode="&amp;" glyph-name="ampersand" horiz-adv-x="500" d="M0 799H500V1049H0V799ZM281 924Q281 959 308 988T375 1018Q410 1018 439 991T469 924Q469 888 442 858Q414 830 375 830Q339 830 309 857Q281 885 281 924ZM31 924Q31 959 58 988T125 1018Q160
1018 189 991T219 924Q219 888 192 858Q164 830 125 830Q89 830 59 857Q31 885 31 924ZM0 -249H500V1H0V-249ZM281 -124Q281 -88 308 -58Q336 -30 375 -30Q410 -30 439 -57T469 -124Q469 -159 442 -188T375 -218Q339 -218 309 -191Q281 -163 281 -124ZM31 -124Q31
-88 58 -58Q86 -30 125 -30Q160 -30 189 -57T219 -124Q219 -159 192 -188T125 -218Q89 -218 59 -191Q31 -163 31 -124ZM82 466Q82 577 151 660T337 778V700Q262 679 210 618Q199 605 190 588T172 549Q158 509 158 463Q158 395 188 343T261 269V467H337V269H444L396
196H337V45H181Q137 45 107 76Q82 107 82 141V177Q82 206 104 231Q125 252 153 262Q127 296 105 348T82 466ZM261 196H199Q179 196 167 190Q158 184 158 161Q158 138 166 130T197 121H261V196Z" />
<glyph unicode="&apos;" glyph-name="quotesingle" horiz-adv-x="250" d="M0 799H250V1049H0V799ZM31 924Q31 959 58 988T125 1018Q160 1018 189 991T219 924Q219 888 192 858Q164 830 125 830Q89 830 59 857Q31 885 31 924ZM0 -249H250V1H0V-249ZM31 -124Q31
-88 58 -58Q86 -30 125 -30Q160 -30 189 -57T219 -124Q219 -159 192 -188T125 -218Q89 -218 59 -191Q31 -163 31 -124ZM147 738V517H104V738H147Z" />
<glyph unicode="(" glyph-name="parenleft" horiz-adv-x="625" d="M599 925Q599 962 572 992Q542 1019 505 1019Q469 1019 439 992Q412 965 412 925Q412 889 439 859Q466 832 505 832Q542 832 572 859Q599 889 599 925ZM377 922Q377 959 349 987T283 1015Q244
1015 217 988T189 922Q189 883 217 855Q247 828 283 828Q322 828 349 856T377 922ZM218 281Q218 316 191 345T124 375Q88 375 58 348Q30 320 30 281Q30 245 57 215Q85 187 124 187Q159 187 188 214T218 281ZM599 -125Q599 -89 572 -59Q543 -32 505 -32Q468 -32
439 -59Q412 -88 412 -125Q412 -144 418 -159T439 -192Q468 -219 505 -219Q540 -219 572 -192Q599 -163 599 -125ZM220 765Q220 802 193 832Q163 859 127 859Q90 859 60 832Q33 802 33 765Q33 729 60 699Q87 672 127 672Q163 672 193 699Q220 726 220 765ZM377
-122Q377 -84 349 -56T283 -28Q247 -28 217 -55Q189 -83 189 -122Q189 -157 216 -187Q244 -215 283 -215Q321 -215 349 -187T377 -122ZM220 35Q220 72 193 101Q164 128 127 128Q108 128 93 122T60 101Q33 72 33 35Q33 0 60 -32Q89 -59 127 -59Q163 -59 193 -32Q220
-3 220 35ZM218 529Q218 568 190 595T124 623Q85 623 58 595T30 529Q30 490 58 463T124 435Q163 435 190 463T218 529ZM249 126V105L252 88Q255 53 278 30Q296 12 350 3L374 1H624V-249H312Q284 -249 268 -245Q168 -227 93 -155Q39 -102 12 -12L3 25L-1 63V414V737Q-1
762 3 779L12 812Q25 859 44 892T93 955Q167 1027 268 1045L312 1049H624V799H374L350 797Q296 791 276 769T252 712L249 685V674V404V126Z" />
<glyph unicode=")" glyph-name="parenright" horiz-adv-x="740" d="M627 63Q627 38 623 21L614 -12Q602 -56 581 -91Q564 -124 533 -155Q459 -227 358 -245L314 -249H2V1H252L276 3Q330 11 349 31T374 88L376 107L377 126V404V674V685L374 712Q371 745 351 766T276
797L252 799H2V1049H314Q342 1049 358 1045Q458 1027 533 955Q587 902 614 812L623 774L627 737V414V63ZM593 765Q593 800 566 832Q537 859 499 859Q463 859 433 832Q406 803 406 765Q406 728 433 699Q462 672 499 672Q518 672 533 678T566 699Q593 728 593 765ZM437
922Q437 958 409 986T343 1015Q305 1015 277 987T249 922Q249 885 276 857T343 828Q379 828 409 855Q437 883 437 922ZM214 925Q214 944 208 959T187 992Q158 1019 121 1019Q86 1019 54 992Q27 963 27 925Q27 889 54 859Q83 832 121 832Q158 832 187 859Q214 888
214 925ZM596 529Q596 564 569 593T502 623Q466 623 436 596Q408 568 408 529Q408 493 435 463Q463 435 502 435Q537 435 566 462T596 529ZM596 281Q596 320 568 347T502 375Q463 375 436 347T408 281Q408 242 436 215T502 187Q541 187 568 215T596 281ZM593 35Q593
71 566 101Q539 128 499 128Q463 128 433 101Q406 74 406 35Q406 -2 433 -32Q463 -59 499 -59Q536 -59 566 -32Q593 -2 593 35ZM437 -122Q437 -83 409 -55Q379 -28 343 -28Q304 -28 277 -55T249 -122Q249 -159 277 -187T343 -215Q382 -215 409 -187T437 -122ZM214
-125Q214 -89 187 -59Q160 -32 121 -32Q84 -32 54 -59Q27 -89 27 -125Q27 -162 54 -192Q84 -219 121 -219Q157 -219 187 -192Q214 -165 214 -125Z" />
<glyph unicode="*" glyph-name="asterisk" horiz-adv-x="250" d="M0 799H250V1049H0V799ZM31 924Q31 959 58 988T125 1018Q160 1018 189 991T219 924Q219 888 192 858Q164 830 125 830Q89 830 59 857Q31 885 31 924ZM0 -249H250V1H0V-249ZM31 -124Q31 -88 58 -58Q86
-30 125 -30Q160 -30 189 -57T219 -124Q219 -159 192 -188T125 -218Q89 -218 59 -191Q31 -163 31 -124ZM151 703V630L213 667L235 628L175 595V591L235 558L213 519L151 555V482H108V555L45 519L23 557L84 591L23 629L45 667L108 629V703H151Z" />
<glyph unicode="+" glyph-name="plus" horiz-adv-x="250" d="M0 799H250V1049H0V799ZM31 924Q31 959 58 988T125 1018Q160 1018 189 991T219 924Q219 888 192 858Q164 830 125 830Q89 830 59 857Q31 885 31 924ZM0 -249H250V1H0V-249ZM31 -124Q31 -88 58 -58Q86
-30 125 -30Q160 -30 189 -57T219 -124Q219 -159 192 -188T125 -218Q89 -218 59 -191Q31 -163 31 -124ZM89 529H156V409H226V342H156V229H89V342H14V409H89V529Z" />
<glyph unicode="," glyph-name="comma" horiz-adv-x="250" d="M0 799H250V1049H0V799ZM31 924Q31 959 58 988T125 1018Q160 1018 189 991T219 924Q219 888 192 858Q164 830 125 830Q89 830 59 857Q31 885 31 924ZM0 -249H250V1H0V-249ZM31 -124Q31 -88 58 -58Q86
-30 125 -30Q160 -30 189 -57T219 -124Q219 -159 192 -188T125 -218Q89 -218 59 -191Q31 -163 31 -124ZM96 27V177H172V126Q172 93 147 65Q128 39 96 27Z" />
<glyph unicode="-" glyph-name="hyphen" horiz-adv-x="250" d="M0 799H250V1049H0V799ZM31 924Q31 959 58 988T125 1018Q160 1018 189 991T219 924Q219 888 192 858Q164 830 125 830Q89 830 59 857Q31 885 31 924ZM0 -249H250V1H0V-249ZM31 -124Q31 -88 58 -58Q86
-30 125 -30Q160 -30 189 -57T219 -124Q219 -159 192 -188T125 -218Q89 -218 59 -191Q31 -163 31 -124ZM11 450H236V382H11V450Z" />
<glyph unicode="." glyph-name="period" horiz-adv-x="250" d="M0 799H250V1049H0V799ZM31 924Q31 959 58 988T125 1018Q160 1018 189 991T219 924Q219 888 192 858Q164 830 125 830Q89 830 59 857Q31 885 31 924ZM0 -249H250V1H0V-249ZM31 -124Q31 -88 58 -58Q86
-30 125 -30Q160 -30 189 -57T219 -124Q219 -159 192 -188T125 -218Q89 -218 59 -191Q31 -163 31 -124ZM86 116H162V40H86V116Z" />
<glyph unicode="/" glyph-name="slash" horiz-adv-x="250" d="M0 799H250V1049H0V799ZM31 924Q31 959 58 988T125 1018Q160 1018 189 991T219 924Q219 888 192 858Q164 830 125 830Q89 830 59 857Q31 885 31 924ZM0 -249H250V1H0V-249ZM31 -124Q31 -88 58 -58Q86
-30 125 -30Q160 -30 189 -57T219 -124Q219 -159 192 -188T125 -218Q89 -218 59 -191Q31 -163 31 -124ZM240 763L85 40H9L164 763H240Z" />
<glyph unicode="0" glyph-name="zero" horiz-adv-x="500" d="M0 799H500V1049H0V799ZM281 924Q281 959 308 988T375 1018Q410 1018 439 991T469 924Q469 888 442 858Q414 830 375 830Q339 830 309 857Q281 885 281 924ZM31 924Q31 959 58 988T125 1018Q160 1018
189 991T219 924Q219 888 192 858Q164 830 125 830Q89 830 59 857Q31 885 31 924ZM0 -249H500V1H0V-249ZM281 -124Q281 -88 308 -58Q336 -30 375 -30Q410 -30 439 -57T469 -124Q469 -159 442 -188T375 -218Q339 -218 309 -191Q281 -163 281 -124ZM31 -124Q31 -88
58 -58Q86 -30 125 -30Q160 -30 189 -57T219 -124Q219 -159 192 -188T125 -218Q89 -218 59 -191Q31 -163 31 -124ZM251 766Q309 766 342 728T376 641V148Q376 92 339 59Q302 28 251 28Q191 28 158 62T124 146V642Q124 699 160 732T251 766ZM250 690Q225 690 213
675T200 628V165Q200 134 211 120T252 105Q276 105 288 120T300 166V631Q300 661 288 675T250 690Z" />
<glyph unicode="1" glyph-name="one" horiz-adv-x="250" d="M0 799H250V1049H0V799ZM31 924Q31 959 58 988T125 1018Q160 1018 189 991T219 924Q219 888 192 858Q164 830 125 830Q89 830 59 857Q31 885 31 924ZM0 -249H250V1H0V-249ZM31 -124Q31 -88 58 -58Q86
-30 125 -30Q160 -30 189 -57T219 -124Q219 -159 192 -188T125 -218Q89 -218 59 -191Q31 -163 31 -124ZM178 772V40H102V639H44L178 772Z" />
<glyph unicode="2" glyph-name="two" horiz-adv-x="500" d="M0 799H500V1049H0V799ZM281 924Q281 959 308 988T375 1018Q410 1018 439 991T469 924Q469 888 442 858Q414 830 375 830Q339 830 309 857Q281 885 281 924ZM31 924Q31 959 58 988T125 1018Q160 1018
189 991T219 924Q219 888 192 858Q164 830 125 830Q89 830 59 857Q31 885 31 924ZM0 -249H500V1H0V-249ZM281 -124Q281 -88 308 -58Q336 -30 375 -30Q410 -30 439 -57T469 -124Q469 -159 442 -188T375 -218Q339 -218 309 -191Q281 -163 281 -124ZM31 -124Q31 -88
58 -58Q86 -30 125 -30Q160 -30 189 -57T219 -124Q219 -159 192 -188T125 -218Q89 -218 59 -191Q31 -163 31 -124ZM257 766Q309 766 345 733T382 641V463V449V438L380 428L375 400L352 347L317 271L278 189L248 121H382V45H130L167 126L212 223L257 319L294 397Q300
411 303 431L306 466V642Q306 663 294 676T256 690Q233 690 220 677T206 635V466H130V644Q130 693 166 729T257 766Z" />
<glyph unicode="3" glyph-name="three" horiz-adv-x="500" d="M0 799H500V1049H0V799ZM281 924Q281 959 308 988T375 1018Q410 1018 439 991T469 924Q469 888 442 858Q414 830 375 830Q339 830 309 857Q281 885 281 924ZM31 924Q31 959 58 988T125 1018Q160 1018
189 991T219 924Q219 888 192 858Q164 830 125 830Q89 830 59 857Q31 885 31 924ZM0 -249H500V1H0V-249ZM281 -124Q281 -88 308 -58Q336 -30 375 -30Q410 -30 439 -57T469 -124Q469 -159 442 -188T375 -218Q339 -218 309 -191Q281 -163 281 -124ZM31 -124Q31 -88
58 -58Q86 -30 125 -30Q160 -30 189 -57T219 -124Q219 -159 192 -188T125 -218Q89 -218 59 -191Q31 -163 31 -124ZM381 134Q381 92 348 65Q314 40 267 40H129V116H266Q290 116 297 122T305 152Q305 168 297 177T266 186H129L83 256H199Q245 286 275 342T305 460Q305
540 258 604T129 692V773Q244 740 312 659T381 462Q381 391 360 340T309 257Q343 245 362 220T381 165V134Z" />
<glyph unicode="4" glyph-name="four" horiz-adv-x="500" d="M0 799H500V1049H0V799ZM281 924Q281 959 308 988T375 1018Q410 1018 439 991T469 924Q469 888 442 858Q414 830 375 830Q339 830 309 857Q281 885 281 924ZM31 924Q31 959 58 988T125 1018Q160 1018
189 991T219 924Q219 888 192 858Q164 830 125 830Q89 830 59 857Q31 885 31 924ZM0 -249H500V1H0V-249ZM281 -124Q281 -88 308 -58Q336 -30 375 -30Q410 -30 439 -57T469 -124Q469 -159 442 -188T375 -218Q339 -218 309 -191Q281 -163 281 -124ZM31 -124Q31 -88
58 -58Q86 -30 125 -30Q160 -30 189 -57T219 -124Q219 -159 192 -188T125 -218Q89 -218 59 -191Q31 -163 31 -124ZM326 767V254H430L394 178H326V35H250V178H52L326 767ZM250 444L163 254H250V444Z" />
<glyph unicode="5" glyph-name="five" horiz-adv-x="500" d="M0 799H500V1049H0V799ZM281 924Q281 959 308 988T375 1018Q410 1018 439 991T469 924Q469 888 442 858Q414 830 375 830Q339 830 309 857Q281 885 281 924ZM31 924Q31 959 58 988T125 1018Q160 1018
189 991T219 924Q219 888 192 858Q164 830 125 830Q89 830 59 857Q31 885 31 924ZM0 -249H500V1H0V-249ZM281 -124Q281 -88 308 -58Q336 -30 375 -30Q410 -30 439 -57T469 -124Q469 -159 442 -188T375 -218Q339 -218 309 -191Q281 -163 281 -124ZM31 -124Q31 -88
58 -58Q86 -30 125 -30Q160 -30 189 -57T219 -124Q219 -159 192 -188T125 -218Q89 -218 59 -191Q31 -163 31 -124ZM379 753V676H198V276H271Q320 276 350 245Q379 218 379 178V145Q379 108 355 78Q330 50 270 50H121V126H261Q288 126 295 134T302 163Q302 184 295
191T262 198H121V753H379Z" />
<glyph unicode="6" glyph-name="six" horiz-adv-x="500" d="M0 799H500V1049H0V799ZM281 924Q281 959 308 988T375 1018Q410 1018 439 991T469 924Q469 888 442 858Q414 830 375 830Q339 830 309 857Q281 885 281 924ZM31 924Q31 959 58 988T125 1018Q160 1018
189 991T219 924Q219 888 192 858Q164 830 125 830Q89 830 59 857Q31 885 31 924ZM0 -249H500V1H0V-249ZM281 -124Q281 -88 308 -58Q336 -30 375 -30Q410 -30 439 -57T469 -124Q469 -159 442 -188T375 -218Q339 -218 309 -191Q281 -163 281 -124ZM31 -124Q31 -88
58 -58Q86 -30 125 -30Q160 -30 189 -57T219 -124Q219 -159 192 -188T125 -218Q89 -218 59 -191Q31 -163 31 -124ZM245 766Q296 766 333 733T371 643V468H295V641Q295 662 281 676T244 690Q224 690 210 677T195 640V264H267Q321 264 346 233Q371 205 371 170V128Q371
96 342 71T266 45H232Q176 45 148 83T119 197V645Q119 687 152 726T245 766ZM195 192V165Q195 142 206 131Q219 121 252 121Q282 121 288 127T295 156Q295 176 289 184T266 192H195Z" />
<glyph unicode="7" glyph-name="seven" horiz-adv-x="500" d="M0 799H500V1049H0V799ZM281 924Q281 959 308 988T375 1018Q410 1018 439 991T469 924Q469 888 442 858Q414 830 375 830Q339 830 309 857Q281 885 281 924ZM31 924Q31 959 58 988T125 1018Q160 1018
189 991T219 924Q219 888 192 858Q164 830 125 830Q89 830 59 857Q31 885 31 924ZM0 -249H500V1H0V-249ZM281 -124Q281 -88 308 -58Q336 -30 375 -30Q410 -30 439 -57T469 -124Q469 -159 442 -188T375 -218Q339 -218 309 -191Q281 -163 281 -124ZM31 -124Q31 -88
58 -58Q86 -30 125 -30Q160 -30 189 -57T219 -124Q219 -159 192 -188T125 -218Q89 -218 59 -191Q31 -163 31 -124ZM148 748H393L218 45H135L291 671H148V748Z" />
<glyph unicode="8" glyph-name="eight" horiz-adv-x="500" d="M0 799H500V1049H0V799ZM281 924Q281 959 308 988T375 1018Q410 1018 439 991T469 924Q469 888 442 858Q414 830 375 830Q339 830 309 857Q281 885 281 924ZM31 924Q31 959 58 988T125 1018Q160 1018
189 991T219 924Q219 888 192 858Q164 830 125 830Q89 830 59 857Q31 885 31 924ZM0 -249H500V1H0V-249ZM281 -124Q281 -88 308 -58Q336 -30 375 -30Q410 -30 439 -57T469 -124Q469 -159 442 -188T375 -218Q339 -218 309 -191Q281 -163 281 -124ZM31 -124Q31 -88
58 -58Q86 -30 125 -30Q160 -30 189 -57T219 -124Q219 -159 192 -188T125 -218Q89 -218 59 -191Q31 -163 31 -124ZM241 771Q298 771 332 730T366 633V377Q366 351 364 340T355 311Q346 281 322 254Q339 237 352 214T366 154Q366 99 329 65Q292 33 241 33Q184 33
149 68T114 154Q114 188 126 211T158 254Q137 280 126 311T114 374V634Q114 694 150 732T241 771ZM190 159Q190 142 202 124Q216 108 242 108Q264 108 277 122Q280 126 285 135T290 159Q290 180 276 193T240 207Q224 207 207 196T190 159ZM240 695Q216 695 203
679T190 633V383Q190 341 202 320T240 286Q265 298 277 318T290 382V636Q290 666 278 680T240 695Z" />
<glyph unicode="9" glyph-name="nine" horiz-adv-x="500" d="M0 799H500V1049H0V799ZM281 924Q281 959 308 988T375 1018Q410 1018 439 991T469 924Q469 888 442 858Q414 830 375 830Q339 830 309 857Q281 885 281 924ZM31 924Q31 959 58 988T125 1018Q160 1018
189 991T219 924Q219 888 192 858Q164 830 125 830Q89 830 59 857Q31 885 31 924ZM0 -249H500V1H0V-249ZM281 -124Q281 -88 308 -58Q336 -30 375 -30Q410 -30 439 -57T469 -124Q469 -159 442 -188T375 -218Q339 -218 309 -191Q281 -163 281 -124ZM31 -124Q31 -88
58 -58Q86 -30 125 -30Q160 -30 189 -57T219 -124Q219 -159 192 -188T125 -218Q89 -218 59 -191Q31 -163 31 -124ZM248 761Q306 761 338 723Q372 686 372 630V215Q372 163 363 118T331 40H238Q264 66 282 105Q296 145 296 188H235Q183 188 153 229T122 325V625Q122
690 158 725T248 761ZM247 685Q224 685 210 670Q198 655 198 623V329Q198 295 206 281T239 266H296V623Q296 656 284 670T247 685Z" />
<glyph unicode=":" glyph-name="colon" horiz-adv-x="250" d="M0 799H250V1049H0V799ZM31 924Q31 959 58 988T125 1018Q160 1018 189 991T219 924Q219 888 192 858Q164 830 125 830Q89 830 59 857Q31 885 31 924ZM0 -249H250V1H0V-249ZM31 -124Q31 -88 58 -58Q86
-30 125 -30Q160 -30 189 -57T219 -124Q219 -159 192 -188T125 -218Q89 -218 59 -191Q31 -163 31 -124ZM162 469V393H86V469H162ZM86 326H162V250H86V326Z" />
<glyph unicode=";" glyph-name="semicolon" horiz-adv-x="250" d="M0 799H250V1049H0V799ZM31 924Q31 959 58 988T125 1018Q160 1018 189 991T219 924Q219 888 192 858Q164 830 125 830Q89 830 59 857Q31 885 31 924ZM0 -249H250V1H0V-249ZM31 -124Q31 -88 58
-58Q86 -30 125 -30Q160 -30 189 -57T219 -124Q219 -159 192 -188T125 -218Q89 -218 59 -191Q31 -163 31 -124ZM162 509V433H86V509H162ZM86 366H162V316Q162 283 136 254Q115 229 86 217V366Z" />
<glyph unicode="&lt;" glyph-name="less" horiz-adv-x="500" d="M0 799H500V1049H0V799ZM281 924Q281 959 308 988T375 1018Q410 1018 439 991T469 924Q469 888 442 858Q414 830 375 830Q339 830 309 857Q281 885 281 924ZM31 924Q31 959 58 988T125 1018Q160
1018 189 991T219 924Q219 888 192 858Q164 830 125 830Q89 830 59 857Q31 885 31 924ZM0 -249H500V1H0V-249ZM281 -124Q281 -88 308 -58Q336 -30 375 -30Q410 -30 439 -57T469 -124Q469 -159 442 -188T375 -218Q339 -218 309 -191Q281 -163 281 -124ZM31 -124Q31
-88 58 -58Q86 -30 125 -30Q160 -30 189 -57T219 -124Q219 -159 192 -188T125 -218Q89 -218 59 -191Q31 -163 31 -124ZM448 678V596L145 377L233 338L343 290L395 265L448 238V158L41 341V413L448 678Z" />
<glyph unicode="=" glyph-name="equal" horiz-adv-x="250" d="M0 799H250V1049H0V799ZM31 924Q31 959 58 988T125 1018Q160 1018 189 991T219 924Q219 888 192 858Q164 830 125 830Q89 830 59 857Q31 885 31 924ZM0 -249H250V1H0V-249ZM31 -124Q31 -88 58 -58Q86
-30 125 -30Q160 -30 189 -57T219 -124Q219 -159 192 -188T125 -218Q89 -218 59 -191Q31 -163 31 -124ZM11 456H236V389H11V456ZM11 345H236V277H11V345Z" />
<glyph unicode="&gt;" glyph-name="greater" horiz-adv-x="500" d="M500 799H0V1049H500V799ZM467 341L60 158V238L109 262Q134 277 165 290L275 338L323 360L363 376L60 596V678L467 413V341ZM500 -249H0V1H500V-249ZM469 924Q469 963 441 990T375 1018Q336 1018
309 990T281 924Q281 885 309 858T375 830Q414 830 441 858T469 924ZM219 924Q219 963 191 990T125 1018Q86 1018 59 990T31 924Q31 885 59 858T125 830Q164 830 191 858T219 924ZM469 -124Q469 -85 441 -58T375 -30Q336 -30 309 -58T281 -124Q281 -163 309 -190T375
-218Q414 -218 441 -190T469 -124ZM219 -124Q219 -85 191 -58T125 -30Q86 -30 59 -58T31 -124Q31 -163 59 -190T125 -218Q164 -218 191 -190T219 -124Z" />
<glyph unicode="?" glyph-name="question" horiz-adv-x="500" d="M0 799H500V1049H0V799ZM281 924Q281 959 308 988T375 1018Q410 1018 439 991T469 924Q469 888 442 858Q414 830 375 830Q339 830 309 857Q281 885 281 924ZM31 924Q31 959 58 988T125 1018Q160
1018 189 991T219 924Q219 888 192 858Q164 830 125 830Q89 830 59 857Q31 885 31 924ZM0 -249H500V1H0V-249ZM281 -124Q281 -88 308 -58Q336 -30 375 -30Q410 -30 439 -57T469 -124Q469 -159 442 -188T375 -218Q339 -218 309 -191Q281 -163 281 -124ZM31 -124Q31
-88 58 -58Q86 -30 125 -30Q160 -30 189 -57T219 -124Q219 -159 192 -188T125 -218Q89 -218 59 -191Q31 -163 31 -124ZM238 766Q296 766 325 727Q339 706 346 688T353 647V355Q353 279 305 234T195 188V274Q234 274 257 298Q277 324 277 368V644Q277 665 266 677Q262
682 255 686T238 690Q219 690 208 678Q199 666 199 643V464H122V643Q122 696 155 731T238 766ZM271 121V45H195V121H271Z" />
<glyph unicode="@" glyph-name="at" horiz-adv-x="740" d="M0 799H740V1049H0V799ZM281 924Q281 959 308 988T375 1018Q410 1018 439 991T469 924Q469 888 442 858Q414 830 375 830Q339 830 309 857Q281 885 281 924ZM31 924Q31 959 58 988T125 1018Q160 1018
189 991T219 924Q219 888 192 858Q164 830 125 830Q89 830 59 857Q31 885 31 924ZM0 -249H740V1H0V-249ZM281 -124Q281 -88 308 -58Q336 -30 375 -30Q410 -30 439 -57T469 -124Q469 -159 442 -188T380 -218Q359 -218 343 -212T309 -190Q281 -164 281 -124ZM31 -124Q31
-88 58 -58Q86 -30 125 -30Q160 -30 189 -57T219 -124Q219 -159 192 -188T125 -218Q89 -218 59 -191Q31 -163 31 -124ZM516 -124Q516 -88 543 -58Q571 -30 610 -30Q645 -30 674 -57T704 -124Q704 -159 677 -188T615 -218Q594 -218 578 -212T544 -190Q516 -164 516
-124ZM521 921Q521 956 548 985T615 1015Q650 1015 679 988T709 921Q709 885 682 855Q654 827 620 827Q600 827 583 833T549 855Q521 881 521 921ZM386 760Q526 760 622 676Q667 637 692 586T718 476Q718 412 697 362T636 275Q560 204 488 204Q455 204 440 222T425
262Q408 247 376 226T303 204Q250 204 211 246Q191 267 181 293T171 353Q171 437 224 517Q250 556 291 578T383 601Q428 601 454 580T496 530L513 582H580L549 473L526 392L512 335L508 300Q508 287 511 279T528 270Q571 270 612 324Q632 352 642 384T653 452Q653
551 582 625Q548 660 498 679T386 698Q265 698 178 614Q138 574 113 518Q92 467 92 398Q92 268 180 184T394 99Q454 99 511 124T619 200L658 161Q623 115 551 77T391 39Q238 39 131 140Q78 190 50 254T21 401Q21 476 47 538T125 652T243 731T386 760ZM388 532Q358
532 333 516T287 472Q250 415 250 368Q250 327 272 302T331 276Q383 276 425 330T467 440Q467 476 444 503Q423 532 388 532Z" />
<glyph unicode="A" glyph-name="A" horiz-adv-x="500" d="M0 799H500V1049H0V799ZM281 924Q281 959 308 988T375 1018Q410 1018 439 991T469 924Q469 888 442 858Q414 830 375 830Q339 830 309 857Q281 885 281 924ZM31 924Q31 959 58 988T125 1018Q160 1018 189
991T219 924Q219 888 192 858Q164 830 125 830Q89 830 59 857Q31 885 31 924ZM0 -249H500V1H0V-249ZM281 -124Q281 -88 308 -58Q336 -30 375 -30Q410 -30 439 -57T469 -124Q469 -159 442 -188T375 -218Q339 -218 309 -191Q281 -163 281 -124ZM31 -124Q31 -88 58
-58Q86 -30 125 -30Q160 -30 189 -57T219 -124Q219 -159 192 -188T125 -218Q89 -218 59 -191Q31 -163 31 -124ZM259 769Q321 769 351 730T381 636V48H305V194H210V48H134V194H68L25 264H134V630Q134 691 167 730T259 769ZM258 693Q233 693 220 676Q210 658 210
631V264H305V630Q305 657 296 675Q285 693 258 693Z" />
<glyph unicode="B" glyph-name="B" horiz-adv-x="500" d="M0 799H500V1049H0V799ZM281 924Q281 959 308 988T375 1018Q410 1018 439 991T469 924Q469 888 442 858Q414 830 375 830Q339 830 309 857Q281 885 281 924ZM31 924Q31 959 58 988T125 1018Q160 1018 189
991T219 924Q219 888 192 858Q164 830 125 830Q89 830 59 857Q31 885 31 924ZM0 -249H500V1H0V-249ZM281 -124Q281 -88 308 -58Q336 -30 375 -30Q410 -30 439 -57T469 -124Q469 -159 442 -188T375 -218Q339 -218 309 -191Q281 -163 281 -124ZM31 -124Q31 -88 58
-58Q86 -30 125 -30Q160 -30 189 -57T219 -124Q219 -159 192 -188T125 -218Q89 -218 59 -191Q31 -163 31 -124ZM151 773Q271 737 337 650T403 457Q403 434 402 422T396 385T375 333Q351 282 323 257Q360 249 381 229T403 173V134Q403 92 371 66T285 40H151V186H85L42
256H151V773ZM227 650V256Q259 277 292 324Q309 348 318 379T327 450Q327 501 304 554T227 650ZM227 186V116H293Q310 116 318 122T327 150Q327 170 319 178T289 186H227Z" />
<glyph unicode="C" glyph-name="C" horiz-adv-x="500" d="M0 799H500V1049H0V799ZM281 924Q281 959 308 988T375 1018Q410 1018 439 991T469 924Q469 888 442 858Q414 830 375 830Q339 830 309 857Q281 885 281 924ZM31 924Q31 959 58 988T125 1018Q160 1018 189
991T219 924Q219 888 192 858Q164 830 125 830Q89 830 59 857Q31 885 31 924ZM0 -249H500V1H0V-249ZM281 -124Q281 -88 308 -58Q336 -30 375 -30Q410 -30 439 -57T469 -124Q469 -159 442 -188T375 -218Q339 -218 309 -191Q281 -163 281 -124ZM31 -124Q31 -88 58
-58Q86 -30 125 -30Q160 -30 189 -57T219 -124Q219 -159 192 -188T125 -218Q89 -218 59 -191Q31 -163 31 -124ZM339 748Q275 698 222 611Q196 567 179 514Q165 461 165 398Q165 278 213 193T338 45H228Q185 85 137 180Q114 226 102 281T89 399Q89 467 103 520T146
626Q196 719 228 748H339Z" />
<glyph unicode="D" glyph-name="D" horiz-adv-x="500" d="M0 799H500V1049H0V799ZM281 924Q281 959 308 988T375 1018Q410 1018 439 991T469 924Q469 888 442 858Q414 830 375 830Q339 830 309 857Q281 885 281 924ZM31 924Q31 959 58 988T125 1018Q160 1018 189
991T219 924Q219 888 192 858Q164 830 125 830Q89 830 59 857Q31 885 31 924ZM0 -249H500V1H0V-249ZM281 -124Q281 -88 308 -58Q336 -30 375 -30Q410 -30 439 -57T469 -124Q469 -159 442 -188T375 -218Q339 -218 309 -191Q281 -163 281 -124ZM31 -124Q31 -88 58
-58Q86 -30 125 -30Q160 -30 189 -57T219 -124Q219 -159 192 -188T125 -218Q89 -218 59 -191Q31 -163 31 -124ZM119 777Q227 737 305 639Q343 592 363 533T383 402Q383 280 318 181T119 26V777ZM195 640V156Q242 199 274 261Q290 292 298 326T307 398Q307 457 280
521T195 640Z" />
<glyph unicode="E" glyph-name="E" horiz-adv-x="500" d="M0 799H500V1049H0V799ZM281 924Q281 959 308 988T375 1018Q410 1018 439 991T469 924Q469 888 442 858Q414 830 375 830Q339 830 309 857Q281 885 281 924ZM31 924Q31 959 58 988T125 1018Q160 1018 189
991T219 924Q219 888 192 858Q164 830 125 830Q89 830 59 857Q31 885 31 924ZM0 -249H500V1H0V-249ZM281 -124Q281 -88 308 -58Q336 -30 375 -30Q410 -30 439 -57T469 -124Q469 -159 442 -188T375 -218Q339 -218 309 -191Q281 -163 281 -124ZM31 -124Q31 -88 58
-58Q86 -30 125 -30Q160 -30 189 -57T219 -124Q219 -159 192 -188T125 -218Q89 -218 59 -191Q31 -163 31 -124ZM146 753H365V676H222V266H365V196H222V154Q222 138 230 131Q238 126 258 126H365V50H253Q202 50 174 77T146 155V196H80L37 266H146V753Z" />
<glyph unicode="F" glyph-name="F" horiz-adv-x="500" d="M0 799H500V1049H0V799ZM281 924Q281 959 308 988T375 1018Q410 1018 439 991T469 924Q469 888 442 858Q414 830 375 830Q339 830 309 857Q281 885 281 924ZM31 924Q31 959 58 988T125 1018Q160 1018 189
991T219 924Q219 888 192 858Q164 830 125 830Q89 830 59 857Q31 885 31 924ZM0 -249H500V1H0V-249ZM281 -124Q281 -88 308 -58Q336 -30 375 -30Q410 -30 439 -57T469 -124Q469 -159 442 -188T375 -218Q339 -218 309 -191Q281 -163 281 -124ZM31 -124Q31 -88 58
-58Q86 -30 125 -30Q160 -30 189 -57T219 -124Q219 -159 192 -188T125 -218Q89 -218 59 -191Q31 -163 31 -124ZM171 753H390V676H247V266H390V196H247V50H171V196H105L62 266H171V753Z" />
<glyph unicode="G" glyph-name="G" horiz-adv-x="500" d="M0 799H500V1049H0V799ZM281 924Q281 959 308 988T375 1018Q410 1018 439 991T469 924Q469 888 442 858Q414 830 375 830Q339 830 309 857Q281 885 281 924ZM31 924Q31 959 58 988T125 1018Q160 1018 189
991T219 924Q219 888 192 858Q164 830 125 830Q89 830 59 857Q31 885 31 924ZM0 -249H500V1H0V-249ZM281 -124Q281 -88 308 -58Q336 -30 375 -30Q410 -30 439 -57T469 -124Q469 -159 442 -188T375 -218Q339 -218 309 -191Q281 -163 281 -124ZM31 -124Q31 -88 58
-58Q86 -30 125 -30Q160 -30 189 -57T219 -124Q219 -159 192 -188T125 -218Q89 -218 59 -191Q31 -163 31 -124ZM359 777V696Q271 657 219 582T166 404Q166 313 199 253T283 154V396H359V26Q233 71 161 171Q125 222 108 280T90 403Q90 537 168 636Q240 728 359 777Z"
/>
<glyph unicode="H" glyph-name="H" horiz-adv-x="500" d="M0 799H500V1049H0V799ZM281 924Q281 959 308 988T375 1018Q410 1018 439 991T469 924Q469 888 442 858Q414 830 375 830Q339 830 309 857Q281 885 281 924ZM31 924Q31 959 58 988T125 1018Q160 1018 189
991T219 924Q219 888 192 858Q164 830 125 830Q89 830 59 857Q31 885 31 924ZM0 -249H500V1H0V-249ZM281 -124Q281 -88 308 -58Q336 -30 375 -30Q410 -30 439 -57T469 -124Q469 -159 442 -188T375 -218Q339 -218 309 -191Q281 -163 281 -124ZM31 -124Q31 -88 58
-58Q86 -30 125 -30Q160 -30 189 -57T219 -124Q219 -159 192 -188T125 -218Q89 -218 59 -191Q31 -163 31 -124ZM134 753H210V266H310V753H386V50H310V196H210V50H134V196H68L25 266H134V753Z" />
<glyph unicode="I" glyph-name="I" horiz-adv-x="250" d="M0 799H250V1049H0V799ZM31 924Q31 959 58 988T125 1018Q160 1018 189 991T219 924Q219 888 192 858Q164 830 125 830Q89 830 59 857Q31 885 31 924ZM0 -249H250V1H0V-249ZM31 -124Q31 -88 58 -58Q86 -30
125 -30Q160 -30 189 -57T219 -124Q219 -159 192 -188T125 -218Q89 -218 59 -191Q31 -163 31 -124ZM155 758V55H79V758H155Z" />
<glyph unicode="J" glyph-name="J" horiz-adv-x="500" d="M0 799H500V1049H0V799ZM281 924Q281 959 308 988T375 1018Q410 1018 439 991T469 924Q469 888 442 858Q414 830 375 830Q339 830 309 857Q281 885 281 924ZM31 924Q31 959 58 988T125 1018Q160 1018 189
991T219 924Q219 888 192 858Q164 830 125 830Q89 830 59 857Q31 885 31 924ZM0 -249H500V1H0V-249ZM281 -124Q281 -88 308 -58Q336 -30 375 -30Q410 -30 439 -57T469 -124Q469 -159 442 -188T375 -218Q339 -218 309 -191Q281 -163 281 -124ZM31 -124Q31 -88 58
-58Q86 -30 125 -30Q160 -30 189 -57T219 -124Q219 -159 192 -188T125 -218Q89 -218 59 -191Q31 -163 31 -124ZM330 753V283Q330 229 316 187T270 109Q213 49 134 33V111Q192 123 223 167T254 284V753H330Z" />
<glyph unicode="K" glyph-name="K" horiz-adv-x="500" d="M0 799H500V1049H0V799ZM281 924Q281 959 308 988T375 1018Q410 1018 439 991T469 924Q469 888 442 858Q414 830 375 830Q339 830 309 857Q281 885 281 924ZM31 924Q31 959 58 988T125 1018Q160 1018 189
991T219 924Q219 888 192 858Q164 830 125 830Q89 830 59 857Q31 885 31 924ZM0 -249H500V1H0V-249ZM281 -124Q281 -88 308 -58Q336 -30 375 -30Q410 -30 439 -57T469 -124Q469 -159 442 -188T375 -218Q339 -218 309 -191Q281 -163 281 -124ZM31 -124Q31 -88 58
-58Q86 -30 125 -30Q160 -30 189 -57T219 -124Q219 -159 192 -188T125 -218Q89 -218 59 -191Q31 -163 31 -124ZM207 753V266Q252 296 282 351Q297 379 305 410T313 479V753H390V483Q390 411 372 360T313 269Q351 256 370 231T390 169V50H313V163Q313 181 307 188T280
196H207V50H131V196H65L22 266H131V753H207Z" />
<glyph unicode="L" glyph-name="L" horiz-adv-x="500" d="M0 799H500V1049H0V799ZM281 924Q281 959 308 988T375 1018Q410 1018 439 991T469 924Q469 888 442 858Q414 830 375 830Q339 830 309 857Q281 885 281 924ZM31 924Q31 959 58 988T125 1018Q160 1018 189
991T219 924Q219 888 192 858Q164 830 125 830Q89 830 59 857Q31 885 31 924ZM0 -249H500V1H0V-249ZM281 -124Q281 -88 308 -58Q336 -30 375 -30Q410 -30 439 -57T469 -124Q469 -159 442 -188T375 -218Q339 -218 309 -191Q281 -163 281 -124ZM31 -124Q31 -88 58
-58Q86 -30 125 -30Q160 -30 189 -57T219 -124Q219 -159 192 -188T125 -218Q89 -218 59 -191Q31 -163 31 -124ZM234 753V175Q234 143 242 135T281 126H365V50H272Q211 50 183 82Q157 116 157 167V753H234Z" />
<glyph unicode="M" glyph-name="M" horiz-adv-x="740" d="M0 799H740V1049H0V799ZM281 924Q281 959 308 988T375 1018Q410 1018 439 991T469 924Q469 888 442 858Q414 830 375 830Q339 830 309 857Q281 885 281 924ZM31 924Q31 959 58 988T125 1018Q160 1018 189
991T219 924Q219 888 192 858Q164 830 125 830Q89 830 59 857Q31 885 31 924ZM0 -249H740V1H0V-249ZM281 -124Q281 -88 308 -58Q336 -30 375 -30Q410 -30 439 -57T469 -124Q469 -159 442 -188T380 -218Q359 -218 343 -212T309 -190Q281 -164 281 -124ZM31 -124Q31
-88 58 -58Q86 -30 125 -30Q160 -30 189 -57T219 -124Q219 -159 192 -188T125 -218Q89 -218 59 -191Q31 -163 31 -124ZM286 761Q313 761 333 751Q345 748 350 743L369 729Q382 740 405 750T453 761Q504 761 536 729T568 641V40H492V638Q492 661 481 673T451 685Q430
685 418 672Q408 659 408 637V40H332V637Q332 657 322 670L308 681L290 685Q270 685 259 671Q248 660 248 639V40H172V642Q172 693 203 727T286 761ZM516 -124Q516 -88 543 -58Q571 -30 610 -30Q645 -30 674 -57T704 -124Q704 -159 677 -188T615 -218Q594 -218
578 -212T544 -190Q516 -164 516 -124ZM521 921Q521 956 548 985T615 1015Q650 1015 679 988T709 921Q709 885 682 855Q654 827 620 827Q600 827 583 833T549 855Q521 881 521 921Z" />
<glyph unicode="N" glyph-name="N" horiz-adv-x="500" d="M0 799H500V1049H0V799ZM281 924Q281 959 308 988T375 1018Q410 1018 439 991T469 924Q469 888 442 858Q414 830 375 830Q339 830 309 857Q281 885 281 924ZM31 924Q31 959 58 988T125 1018Q160 1018 189
991T219 924Q219 888 192 858Q164 830 125 830Q89 830 59 857Q31 885 31 924ZM0 -249H500V1H0V-249ZM281 -124Q281 -88 308 -58Q336 -30 375 -30Q410 -30 439 -57T469 -124Q469 -159 442 -188T375 -218Q339 -218 309 -191Q281 -163 281 -124ZM31 -124Q31 -88 58
-58Q86 -30 125 -30Q160 -30 189 -57T219 -124Q219 -159 192 -188T125 -218Q89 -218 59 -191Q31 -163 31 -124ZM123 770L291 478V733H368V30H291V339L199 489V30H123V770Z" />
<glyph unicode="O" glyph-name="O" horiz-adv-x="500" d="M0 799H500V1049H0V799ZM281 924Q281 959 308 988T375 1018Q410 1018 439 991T469 924Q469 888 442 858Q414 830 375 830Q339 830 309 857Q281 885 281 924ZM31 924Q31 959 58 988T125 1018Q160 1018 189
991T219 924Q219 888 192 858Q164 830 125 830Q89 830 59 857Q31 885 31 924ZM0 -249H500V1H0V-249ZM281 -124Q281 -88 308 -58Q336 -30 375 -30Q410 -30 439 -57T469 -124Q469 -159 442 -188T375 -218Q339 -218 309 -191Q281 -163 281 -124ZM31 -124Q31 -88 58
-58Q86 -30 125 -30Q160 -30 189 -57T219 -124Q219 -159 192 -188T125 -218Q89 -218 59 -191Q31 -163 31 -124ZM246 771Q304 771 337 733T371 646V153Q371 97 334 64Q297 33 246 33Q186 33 153 67T119 151V647Q119 704 155 737T246 771ZM245 695Q220 695 208 680T195
633V170Q195 139 206 125T247 110Q273 110 284 125T295 171V636Q295 666 283 680T245 695Z" />
<glyph unicode="P" glyph-name="P" horiz-adv-x="500" d="M0 799H500V1049H0V799ZM281 924Q281 959 308 988T375 1018Q410 1018 439 991T469 924Q469 888 442 858Q414 830 375 830Q339 830 309 857Q281 885 281 924ZM31 924Q31 959 58 988T125 1018Q160 1018 189
991T219 924Q219 888 192 858Q164 830 125 830Q89 830 59 857Q31 885 31 924ZM0 -249H500V1H0V-249ZM281 -124Q281 -88 308 -58Q336 -30 375 -30Q410 -30 439 -57T469 -124Q469 -159 442 -188T375 -218Q339 -218 309 -191Q281 -163 281 -124ZM31 -124Q31 -88 58
-58Q86 -30 125 -30Q160 -30 189 -57T219 -124Q219 -159 192 -188T125 -218Q89 -218 59 -191Q31 -163 31 -124ZM129 773Q238 740 310 659Q345 619 363 569T381 459Q381 431 378 408T367 360Q353 314 326 278Q276 209 205 171V40H129V773ZM205 259Q234 277 269 327T305
450Q305 522 274 573T205 650V259Z" />
<glyph unicode="Q" glyph-name="Q" horiz-adv-x="500" d="M0 799H500V1049H0V799ZM281 924Q281 959 308 988T375 1018Q410 1018 439 991T469 924Q469 888 442 858Q414 830 375 830Q339 830 309 857Q281 885 281 924ZM31 924Q31 959 58 988T125 1018Q160 1018 189
991T219 924Q219 888 192 858Q164 830 125 830Q89 830 59 857Q31 885 31 924ZM0 -249H500V1H0V-249ZM281 -124Q281 -88 308 -58Q336 -30 375 -30Q410 -30 439 -57T469 -124Q469 -159 442 -188T375 -218Q339 -218 309 -191Q281 -163 281 -124ZM31 -124Q31 -88 58
-58Q86 -30 125 -30Q160 -30 189 -57T219 -124Q219 -159 192 -188T125 -218Q89 -218 59 -191Q31 -163 31 -124ZM246 766Q304 766 338 728T372 628V331Q372 282 359 246T319 183L302 170L288 158Q310 135 326 126Q341 120 372 114V38Q332 38 299 54Q267 67 247 87Q230
106 211 115Q209 116 203 117T183 119L158 120V196Q230 196 262 237T295 337V627Q295 656 283 674Q270 690 246 690Q224 690 210 676T196 628V263H119V629Q119 693 154 729T246 766Z" />
<glyph unicode="R" glyph-name="R" horiz-adv-x="500" d="M0 799H500V1049H0V799ZM281 924Q281 959 308 988T375 1018Q410 1018 439 991T469 924Q469 888 442 858Q414 830 375 830Q339 830 309 857Q281 885 281 924ZM31 924Q31 959 58 988T125 1018Q160 1018 189
991T219 924Q219 888 192 858Q164 830 125 830Q89 830 59 857Q31 885 31 924ZM0 -249H500V1H0V-249ZM281 -124Q281 -88 308 -58Q336 -30 375 -30Q410 -30 439 -57T469 -124Q469 -159 442 -188T375 -218Q339 -218 309 -191Q281 -163 281 -124ZM31 -124Q31 -88 58
-58Q86 -30 125 -30Q160 -30 189 -57T219 -124Q219 -159 192 -188T125 -218Q89 -218 59 -191Q31 -163 31 -124ZM126 773Q235 743 306 660Q339 620 358 568T378 458Q378 399 358 352Q342 304 298 256Q339 256 358 232T378 168V40H302V155Q302 172 295 178T270 186H202V40H126V186H60L17
256H126V773ZM202 256Q236 276 268 326Q284 349 293 380T302 450Q302 480 301 490T294 517Q286 546 269 575Q237 627 202 650V256Z" />
<glyph unicode="S" glyph-name="S" horiz-adv-x="500" d="M0 799H500V1049H0V799ZM281 924Q281 959 308 988T375 1018Q410 1018 439 991T469 924Q469 888 442 858Q414 830 375 830Q339 830 309 857Q281 885 281 924ZM31 924Q31 959 58 988T125 1018Q160 1018 189
991T219 924Q219 888 192 858Q164 830 125 830Q89 830 59 857Q31 885 31 924ZM0 -249H500V1H0V-249ZM281 -124Q281 -88 308 -58Q336 -30 375 -30Q410 -30 439 -57T469 -124Q469 -159 442 -188T375 -218Q339 -218 309 -191Q281 -163 281 -124ZM31 -124Q31 -88 58
-58Q86 -30 125 -30Q160 -30 189 -57T219 -124Q219 -159 192 -188T125 -218Q89 -218 59 -191Q31 -163 31 -124ZM343 748Q282 684 261 621Q253 595 248 566L244 520Q244 478 256 440L265 411L284 369Q293 352 299 337T313 299Q327 262 327 218Q327 188 324 166T313
121Q301 77 282 45H185Q216 81 233 125T251 215Q251 235 248 252T237 288L224 321Q217 339 208 354L193 388L179 427Q167 468 167 522Q167 539 167 551T171 585Q174 613 187 646Q196 673 209 699T240 748H343Z" />
<glyph unicode="T" glyph-name="T" horiz-adv-x="500" d="M0 799H500V1049H0V799ZM281 924Q281 959 308 988T375 1018Q410 1018 439 991T469 924Q469 888 442 858Q414 830 375 830Q339 830 309 857Q281 885 281 924ZM31 924Q31 959 58 988T125 1018Q160 1018 189
991T219 924Q219 888 192 858Q164 830 125 830Q89 830 59 857Q31 885 31 924ZM0 -249H500V1H0V-249ZM281 -124Q281 -88 308 -58Q336 -30 375 -30Q410 -30 439 -57T469 -124Q469 -159 442 -188T375 -218Q339 -218 309 -191Q281 -163 281 -124ZM31 -124Q31 -88 58
-58Q86 -30 125 -30Q160 -30 189 -57T219 -124Q219 -159 192 -188T125 -218Q89 -218 59 -191Q31 -163 31 -124ZM368 748V671H284V45H207V671H124V748H368Z" />
<glyph unicode="U" glyph-name="U" horiz-adv-x="500" d="M0 799H500V1049H0V799ZM281 924Q281 959 308 988T375 1018Q410 1018 439 991T469 924Q469 888 442 858Q414 830 375 830Q339 830 309 857Q281 885 281 924ZM31 924Q31 959 58 988T125 1018Q160 1018 189
991T219 924Q219 888 192 858Q164 830 125 830Q89 830 59 857Q31 885 31 924ZM0 -249H500V1H0V-249ZM281 -124Q281 -88 308 -58Q336 -30 375 -30Q410 -30 439 -57T469 -124Q469 -159 442 -188T375 -218Q339 -218 309 -191Q281 -163 281 -124ZM31 -124Q31 -88 58
-58Q86 -30 125 -30Q160 -30 189 -57T219 -124Q219 -159 192 -188T125 -218Q89 -218 59 -191Q31 -163 31 -124ZM375 753V160Q375 95 336 63Q297 33 251 33Q196 33 161 65T126 165V753H202V170Q202 140 213 123Q225 108 251 108Q273 108 286 122T299 169V753H375Z"
/>
<glyph unicode="V" glyph-name="V" horiz-adv-x="500" d="M0 799H500V1049H0V799ZM281 924Q281 959 308 988T375 1018Q410 1018 439 991T469 924Q469 888 442 858Q414 830 375 830Q339 830 309 857Q281 885 281 924ZM31 924Q31 959 58 988T125 1018Q160 1018 189
991T219 924Q219 888 192 858Q164 830 125 830Q89 830 59 857Q31 885 31 924ZM0 -249H500V1H0V-249ZM281 -124Q281 -88 308 -58Q336 -30 375 -30Q410 -30 439 -57T469 -124Q469 -159 442 -188T375 -218Q339 -218 309 -191Q281 -163 281 -124ZM31 -124Q31 -88 58
-58Q86 -30 125 -30Q160 -30 189 -57T219 -124Q219 -159 192 -188T125 -218Q89 -218 59 -191Q31 -163 31 -124ZM93 763H171L203 578L236 385L273 582L305 763H382L238 12L93 763Z" />
<glyph unicode="W" glyph-name="W" horiz-adv-x="500" d="M0 799H500V1049H0V799ZM281 924Q281 959 308 988T375 1018Q410 1018 439 991T469 924Q469 888 442 858Q414 830 375 830Q339 830 309 857Q281 885 281 924ZM31 924Q31 959 58 988T125 1018Q160 1018 189
991T219 924Q219 888 192 858Q164 830 125 830Q89 830 59 857Q31 885 31 924ZM0 -249H500V1H0V-249ZM281 -124Q281 -88 308 -58Q336 -30 375 -30Q410 -30 439 -57T469 -124Q469 -159 442 -188T375 -218Q339 -218 309 -191Q281 -163 281 -124ZM31 -124Q31 -88 58
-58Q86 -30 125 -30Q160 -30 189 -57T219 -124Q219 -159 192 -188T125 -218Q89 -218 59 -191Q31 -163 31 -124ZM31 758H113L127 674L144 572L162 471L177 388L218 602L253 788L269 700L289 592L310 483L328 388L344 478L361 578L378 676L393 758H472L333 7L252
408L235 326L215 216L195 101L179 7L31 758Z" />
<glyph unicode="X" glyph-name="X" horiz-adv-x="500" d="M0 799H500V1049H0V799ZM281 924Q281 959 308 988T375 1018Q410 1018 439 991T469 924Q469 888 442 858Q414 830 375 830Q339 830 309 857Q281 885 281 924ZM31 924Q31 959 58 988T125 1018Q160 1018 189
991T219 924Q219 888 192 858Q164 830 125 830Q89 830 59 857Q31 885 31 924ZM0 -249H500V1H0V-249ZM281 -124Q281 -88 308 -58Q336 -30 375 -30Q410 -30 439 -57T469 -124Q469 -159 442 -188T375 -218Q339 -218 309 -191Q281 -163 281 -124ZM31 -124Q31 -88 58
-58Q86 -30 125 -30Q160 -30 189 -57T219 -124Q219 -159 192 -188T125 -218Q89 -218 59 -191Q31 -163 31 -124ZM123 748H197L257 522L317 748H391L369 661L347 579L319 473L303 417L301 407L300 397L304 374L321 312L350 203L391 45H318L258 271L243 222L226 160L209
97L197 45H123L141 120L168 222L196 328L211 380L215 396L210 418L193 480L163 587L123 748Z" />
<glyph unicode="Y" glyph-name="Y" horiz-adv-x="500" d="M0 799H500V1049H0V799ZM281 924Q281 959 308 988T375 1018Q410 1018 439 991T469 924Q469 888 442 858Q414 830 375 830Q339 830 309 857Q281 885 281 924ZM31 924Q31 959 58 988T125 1018Q160 1018 189
991T219 924Q219 888 192 858Q164 830 125 830Q89 830 59 857Q31 885 31 924ZM0 -249H500V1H0V-249ZM281 -124Q281 -88 308 -58Q336 -30 375 -30Q410 -30 439 -57T469 -124Q469 -159 442 -188T375 -218Q339 -218 309 -191Q281 -163 281 -124ZM31 -124Q31 -88 58
-58Q86 -30 125 -30Q160 -30 189 -57T219 -124Q219 -159 192 -188T125 -218Q89 -218 59 -191Q31 -163 31 -124ZM122 748H198V327Q198 300 210 283Q222 269 247 269Q272 269 284 284T296 325V748H372V320Q372 278 351 243Q333 210 285 195V45H209V195Q159 212 141
247T122 322V748Z" />
<glyph unicode="Z" glyph-name="Z" horiz-adv-x="500" d="M0 799H500V1049H0V799ZM281 924Q281 959 308 988T375 1018Q410 1018 439 991T469 924Q469 888 442 858Q414 830 375 830Q339 830 309 857Q281 885 281 924ZM31 924Q31 959 58 988T125 1018Q160 1018 189
991T219 924Q219 888 192 858Q164 830 125 830Q89 830 59 857Q31 885 31 924ZM0 -249H500V1H0V-249ZM281 -124Q281 -88 308 -58Q336 -30 375 -30Q410 -30 439 -57T469 -124Q469 -159 442 -188T375 -218Q339 -218 309 -191Q281 -163 281 -124ZM31 -124Q31 -88 58
-58Q86 -30 125 -30Q160 -30 189 -57T219 -124Q219 -159 192 -188T125 -218Q89 -218 59 -191Q31 -163 31 -124ZM137 748H372L216 121H361V45H120L274 671H137V748Z" />
<glyph unicode="[" glyph-name="bracketleft" horiz-adv-x="625" d="M599 925Q599 962 572 992Q542 1019 505 1019Q469 1019 439 992Q412 965 412 925Q412 889 439 859Q466 832 505 832Q542 832 572 859Q599 889 599 925ZM377 922Q377 959 349 987T283 1015Q244
1015 217 988T189 922Q189 883 217 855Q247 828 283 828Q322 828 349 856T377 922ZM218 281Q218 316 191 345T124 375Q88 375 58 348Q30 320 30 281Q30 245 57 215Q85 187 124 187Q159 187 188 214T218 281ZM599 -125Q599 -89 572 -59Q543 -32 505 -32Q468 -32
439 -59Q412 -88 412 -125Q412 -144 418 -159T439 -192Q468 -219 505 -219Q540 -219 572 -192Q599 -163 599 -125ZM220 765Q220 802 193 832Q163 859 127 859Q90 859 60 832Q33 802 33 765Q33 729 60 699Q87 672 127 672Q163 672 193 699Q220 726 220 765ZM377
-122Q377 -84 349 -56T283 -28Q247 -28 217 -55Q189 -83 189 -122Q189 -157 216 -187Q244 -215 283 -215Q321 -215 349 -187T377 -122ZM220 35Q220 72 193 101Q164 128 127 128Q108 128 93 122T60 101Q33 72 33 35Q33 0 60 -32Q89 -59 127 -59Q163 -59 193 -32Q220
-3 220 35ZM218 529Q218 568 190 595T124 623Q85 623 58 595T30 529Q30 490 58 463T124 435Q163 435 190 463T218 529ZM249 126V105L252 88Q255 53 278 30Q296 12 350 3L374 1H624V-249H312Q284 -249 268 -245Q168 -227 93 -155Q39 -102 12 -12L3 25L-1 63V414V737Q-1
762 3 779L12 812Q25 859 44 892T93 955Q167 1027 268 1045L312 1049H624V799H374L350 797Q296 791 276 769T252 712L249 685V674V404V126Z" />
<glyph unicode="\" glyph-name="backslash" horiz-adv-x="250" d="M0 799H250V1049H0V799ZM31 924Q31 959 58 988T125 1018Q160 1018 189 991T219 924Q219 888 192 858Q164 830 125 830Q89 830 59 857Q31 885 31 924ZM0 -249H250V1H0V-249ZM31 -124Q31 -88 58
-58Q86 -30 125 -30Q160 -30 189 -57T219 -124Q219 -159 192 -188T125 -218Q89 -218 59 -191Q31 -163 31 -124ZM80 758L245 45H169L4 758H80Z" />
<glyph unicode="]" glyph-name="bracketright" horiz-adv-x="740" d="M627 63Q627 38 623 21L614 -12Q602 -56 581 -91Q564 -124 533 -155Q459 -227 358 -245L314 -249H2V1H252L276 3Q330 11 349 31T374 88L376 107L377 126V404V674V685L374 712Q371 745 351 766T276
797L252 799H2V1049H314Q342 1049 358 1045Q458 1027 533 955Q587 902 614 812L623 774L627 737V414V63ZM593 765Q593 800 566 832Q537 859 499 859Q463 859 433 832Q406 803 406 765Q406 728 433 699Q462 672 499 672Q518 672 533 678T566 699Q593 728 593 765ZM437
922Q437 958 409 986T343 1015Q305 1015 277 987T249 922Q249 885 276 857T343 828Q379 828 409 855Q437 883 437 922ZM214 925Q214 944 208 959T187 992Q158 1019 121 1019Q86 1019 54 992Q27 963 27 925Q27 889 54 859Q83 832 121 832Q158 832 187 859Q214 888
214 925ZM596 529Q596 564 569 593T502 623Q466 623 436 596Q408 568 408 529Q408 493 435 463Q463 435 502 435Q537 435 566 462T596 529ZM596 281Q596 320 568 347T502 375Q463 375 436 347T408 281Q408 242 436 215T502 187Q541 187 568 215T596 281ZM593 35Q593
71 566 101Q539 128 499 128Q463 128 433 101Q406 74 406 35Q406 -2 433 -32Q463 -59 499 -59Q536 -59 566 -32Q593 -2 593 35ZM437 -122Q437 -83 409 -55Q379 -28 343 -28Q304 -28 277 -55T249 -122Q249 -159 277 -187T343 -215Q382 -215 409 -187T437 -122ZM214
-125Q214 -89 187 -59Q160 -32 121 -32Q84 -32 54 -59Q27 -89 27 -125Q27 -162 54 -192Q84 -219 121 -219Q157 -219 187 -192Q214 -165 214 -125Z" />
<glyph unicode="^" glyph-name="asciicircum" horiz-adv-x="500" d="M0 799H500V1049H0V799ZM281 924Q281 959 308 988T375 1018Q410 1018 439 991T469 924Q469 888 442 858Q414 830 375 830Q339 830 309 857Q281 885 281 924ZM31 924Q31 959 58 988T125 1018Q160
1018 189 991T219 924Q219 888 192 858Q164 830 125 830Q89 830 59 857Q31 885 31 924ZM0 -249H500V1H0V-249ZM281 -124Q281 -88 308 -58Q336 -30 375 -30Q410 -30 439 -57T469 -124Q469 -159 442 -188T375 -218Q339 -218 309 -191Q281 -163 281 -124ZM31 -124Q31
-88 58 -58Q86 -30 125 -30Q160 -30 189 -57T219 -124Q219 -159 192 -188T125 -218Q89 -218 59 -191Q31 -163 31 -124ZM301 724L440 391H357L264 638L158 396H74L225 724H301Z" />
<glyph unicode="_" glyph-name="underscore" horiz-adv-x="500" d="M0 799H500V1049H0V799ZM281 924Q281 959 308 988T375 1018Q410 1018 439 991T469 924Q469 888 442 858Q414 830 375 830Q339 830 309 857Q281 885 281 924ZM31 924Q31 959 58 988T125 1018Q160
1018 189 991T219 924Q219 888 192 858Q164 830 125 830Q89 830 59 857Q31 885 31 924ZM0 -249H500V1H0V-249ZM281 -124Q281 -88 308 -58Q336 -30 375 -30Q410 -30 439 -57T469 -124Q469 -159 442 -188T375 -218Q339 -218 309 -191Q281 -163 281 -124ZM31 -124Q31
-88 58 -58Q86 -30 125 -30Q160 -30 189 -57T219 -124Q219 -159 192 -188T125 -218Q89 -218 59 -191Q31 -163 31 -124Z" />
<glyph unicode="`" glyph-name="grave" horiz-adv-x="500" d="M0 799H500V1049H0V799ZM281 924Q281 959 308 988T375 1018Q410 1018 439 991T469 924Q469 888 442 858Q414 830 375 830Q339 830 309 857Q281 885 281 924ZM31 924Q31 959 58 988T125 1018Q160 1018
189 991T219 924Q219 888 192 858Q164 830 125 830Q89 830 59 857Q31 885 31 924ZM0 -249H500V1H0V-249ZM281 -124Q281 -88 308 -58Q336 -30 375 -30Q410 -30 439 -57T469 -124Q469 -159 442 -188T375 -218Q339 -218 309 -191Q281 -163 281 -124ZM31 -124Q31 -88
58 -58Q86 -30 125 -30Q160 -30 189 -57T219 -124Q219 -159 192 -188T125 -218Q89 -218 59 -191Q31 -163 31 -124ZM218 756L316 588H258L122 756H218Z" />
<glyph unicode="a" glyph-name="a" horiz-adv-x="500" d="M0 799H500V1049H0V799ZM281 924Q281 959 308 988T375 1018Q410 1018 439 991T469 924Q469 888 442 858Q414 830 375 830Q339 830 309 857Q281 885 281 924ZM31 924Q31 959 58 988T125 1018Q160 1018 189
991T219 924Q219 888 192 858Q164 830 125 830Q89 830 59 857Q31 885 31 924ZM0 -249H500V1H0V-249ZM281 -124Q281 -88 308 -58Q336 -30 375 -30Q410 -30 439 -57T469 -124Q469 -159 442 -188T375 -218Q339 -218 309 -191Q281 -163 281 -124ZM31 -124Q31 -88 58
-58Q86 -30 125 -30Q160 -30 189 -57T219 -124Q219 -159 192 -188T125 -218Q89 -218 59 -191Q31 -163 31 -124ZM259 769Q321 769 351 730T381 636V48H305V194H210V48H134V194H68L25 264H134V630Q134 691 167 730T259 769ZM258 693Q233 693 220 676Q210 658 210
631V264H305V630Q305 657 296 675Q285 693 258 693Z" />
<glyph unicode="b" glyph-name="b" horiz-adv-x="500" d="M0 799H500V1049H0V799ZM281 924Q281 959 308 988T375 1018Q410 1018 439 991T469 924Q469 888 442 858Q414 830 375 830Q339 830 309 857Q281 885 281 924ZM31 924Q31 959 58 988T125 1018Q160 1018 189
991T219 924Q219 888 192 858Q164 830 125 830Q89 830 59 857Q31 885 31 924ZM0 -249H500V1H0V-249ZM281 -124Q281 -88 308 -58Q336 -30 375 -30Q410 -30 439 -57T469 -124Q469 -159 442 -188T375 -218Q339 -218 309 -191Q281 -163 281 -124ZM31 -124Q31 -88 58
-58Q86 -30 125 -30Q160 -30 189 -57T219 -124Q219 -159 192 -188T125 -218Q89 -218 59 -191Q31 -163 31 -124ZM151 773Q271 737 337 650T403 457Q403 434 402 422T396 385T375 333Q351 282 323 257Q360 249 381 229T403 173V134Q403 92 371 66T285 40H151V186H85L42
256H151V773ZM227 650V256Q259 277 292 324Q309 348 318 379T327 450Q327 501 304 554T227 650ZM227 186V116H293Q310 116 318 122T327 150Q327 170 319 178T289 186H227Z" />
<glyph unicode="c" glyph-name="c" horiz-adv-x="500" d="M0 799H500V1049H0V799ZM281 924Q281 959 308 988T375 1018Q410 1018 439 991T469 924Q469 888 442 858Q414 830 375 830Q339 830 309 857Q281 885 281 924ZM31 924Q31 959 58 988T125 1018Q160 1018 189
991T219 924Q219 888 192 858Q164 830 125 830Q89 830 59 857Q31 885 31 924ZM0 -249H500V1H0V-249ZM281 -124Q281 -88 308 -58Q336 -30 375 -30Q410 -30 439 -57T469 -124Q469 -159 442 -188T375 -218Q339 -218 309 -191Q281 -163 281 -124ZM31 -124Q31 -88 58
-58Q86 -30 125 -30Q160 -30 189 -57T219 -124Q219 -159 192 -188T125 -218Q89 -218 59 -191Q31 -163 31 -124ZM339 748Q275 698 222 611Q196 567 179 514Q165 461 165 398Q165 278 213 193T338 45H228Q185 85 137 180Q114 226 102 281T89 399Q89 467 103 520T146
626Q196 719 228 748H339Z" />
<glyph unicode="d" glyph-name="d" horiz-adv-x="500" d="M0 799H500V1049H0V799ZM281 924Q281 959 308 988T375 1018Q410 1018 439 991T469 924Q469 888 442 858Q414 830 375 830Q339 830 309 857Q281 885 281 924ZM31 924Q31 959 58 988T125 1018Q160 1018 189
991T219 924Q219 888 192 858Q164 830 125 830Q89 830 59 857Q31 885 31 924ZM0 -249H500V1H0V-249ZM281 -124Q281 -88 308 -58Q336 -30 375 -30Q410 -30 439 -57T469 -124Q469 -159 442 -188T375 -218Q339 -218 309 -191Q281 -163 281 -124ZM31 -124Q31 -88 58
-58Q86 -30 125 -30Q160 -30 189 -57T219 -124Q219 -159 192 -188T125 -218Q89 -218 59 -191Q31 -163 31 -124ZM119 777Q227 737 305 639Q343 592 363 533T383 402Q383 280 318 181T119 26V777ZM195 640V156Q242 199 274 261Q290 292 298 326T307 398Q307 457 280
521T195 640Z" />
<glyph unicode="e" glyph-name="e" horiz-adv-x="500" d="M0 799H500V1049H0V799ZM281 924Q281 959 308 988T375 1018Q410 1018 439 991T469 924Q469 888 442 858Q414 830 375 830Q339 830 309 857Q281 885 281 924ZM31 924Q31 959 58 988T125 1018Q160 1018 189
991T219 924Q219 888 192 858Q164 830 125 830Q89 830 59 857Q31 885 31 924ZM0 -249H500V1H0V-249ZM281 -124Q281 -88 308 -58Q336 -30 375 -30Q410 -30 439 -57T469 -124Q469 -159 442 -188T375 -218Q339 -218 309 -191Q281 -163 281 -124ZM31 -124Q31 -88 58
-58Q86 -30 125 -30Q160 -30 189 -57T219 -124Q219 -159 192 -188T125 -218Q89 -218 59 -191Q31 -163 31 -124ZM146 753H365V676H222V266H365V196H222V154Q222 138 230 131Q238 126 258 126H365V50H253Q202 50 174 77T146 155V196H80L37 266H146V753Z" />
<glyph unicode="f" glyph-name="f" horiz-adv-x="500" d="M0 799H500V1049H0V799ZM281 924Q281 959 308 988T375 1018Q410 1018 439 991T469 924Q469 888 442 858Q414 830 375 830Q339 830 309 857Q281 885 281 924ZM31 924Q31 959 58 988T125 1018Q160 1018 189
991T219 924Q219 888 192 858Q164 830 125 830Q89 830 59 857Q31 885 31 924ZM0 -249H500V1H0V-249ZM281 -124Q281 -88 308 -58Q336 -30 375 -30Q410 -30 439 -57T469 -124Q469 -159 442 -188T375 -218Q339 -218 309 -191Q281 -163 281 -124ZM31 -124Q31 -88 58
-58Q86 -30 125 -30Q160 -30 189 -57T219 -124Q219 -159 192 -188T125 -218Q89 -218 59 -191Q31 -163 31 -124ZM171 753H390V676H247V266H390V196H247V50H171V196H105L62 266H171V753Z" />
<glyph unicode="g" glyph-name="g" horiz-adv-x="500" d="M0 799H500V1049H0V799ZM281 924Q281 959 308 988T375 1018Q410 1018 439 991T469 924Q469 888 442 858Q414 830 375 830Q339 830 309 857Q281 885 281 924ZM31 924Q31 959 58 988T125 1018Q160 1018 189
991T219 924Q219 888 192 858Q164 830 125 830Q89 830 59 857Q31 885 31 924ZM0 -249H500V1H0V-249ZM281 -124Q281 -88 308 -58Q336 -30 375 -30Q410 -30 439 -57T469 -124Q469 -159 442 -188T375 -218Q339 -218 309 -191Q281 -163 281 -124ZM31 -124Q31 -88 58
-58Q86 -30 125 -30Q160 -30 189 -57T219 -124Q219 -159 192 -188T125 -218Q89 -218 59 -191Q31 -163 31 -124ZM359 777V696Q271 657 219 582T166 404Q166 313 199 253T283 154V396H359V26Q233 71 161 171Q125 222 108 280T90 403Q90 537 168 636Q240 728 359 777Z"
/>
<glyph unicode="h" glyph-name="h" horiz-adv-x="500" d="M0 799H500V1049H0V799ZM281 924Q281 959 308 988T375 1018Q410 1018 439 991T469 924Q469 888 442 858Q414 830 375 830Q339 830 309 857Q281 885 281 924ZM31 924Q31 959 58 988T125 1018Q160 1018 189
991T219 924Q219 888 192 858Q164 830 125 830Q89 830 59 857Q31 885 31 924ZM0 -249H500V1H0V-249ZM281 -124Q281 -88 308 -58Q336 -30 375 -30Q410 -30 439 -57T469 -124Q469 -159 442 -188T375 -218Q339 -218 309 -191Q281 -163 281 -124ZM31 -124Q31 -88 58
-58Q86 -30 125 -30Q160 -30 189 -57T219 -124Q219 -159 192 -188T125 -218Q89 -218 59 -191Q31 -163 31 -124ZM134 753H210V266H310V753H386V50H310V196H210V50H134V196H68L25 266H134V753Z" />
<glyph unicode="i" glyph-name="i" horiz-adv-x="250" d="M0 799H250V1049H0V799ZM31 924Q31 959 58 988T125 1018Q160 1018 189 991T219 924Q219 888 192 858Q164 830 125 830Q89 830 59 857Q31 885 31 924ZM0 -249H250V1H0V-249ZM31 -124Q31 -88 58 -58Q86 -30
125 -30Q160 -30 189 -57T219 -124Q219 -159 192 -188T125 -218Q89 -218 59 -191Q31 -163 31 -124ZM155 758V55H79V758H155Z" />
<glyph unicode="j" glyph-name="j" horiz-adv-x="500" d="M0 799H500V1049H0V799ZM281 924Q281 959 308 988T375 1018Q410 1018 439 991T469 924Q469 888 442 858Q414 830 375 830Q339 830 309 857Q281 885 281 924ZM31 924Q31 959 58 988T125 1018Q160 1018 189
991T219 924Q219 888 192 858Q164 830 125 830Q89 830 59 857Q31 885 31 924ZM0 -249H500V1H0V-249ZM281 -124Q281 -88 308 -58Q336 -30 375 -30Q410 -30 439 -57T469 -124Q469 -159 442 -188T375 -218Q339 -218 309 -191Q281 -163 281 -124ZM31 -124Q31 -88 58
-58Q86 -30 125 -30Q160 -30 189 -57T219 -124Q219 -159 192 -188T125 -218Q89 -218 59 -191Q31 -163 31 -124ZM330 753V283Q330 229 316 187T270 109Q213 49 134 33V111Q192 123 223 167T254 284V753H330Z" />
<glyph unicode="k" glyph-name="k" horiz-adv-x="500" d="M0 799H500V1049H0V799ZM281 924Q281 959 308 988T375 1018Q410 1018 439 991T469 924Q469 888 442 858Q414 830 375 830Q339 830 309 857Q281 885 281 924ZM31 924Q31 959 58 988T125 1018Q160 1018 189
991T219 924Q219 888 192 858Q164 830 125 830Q89 830 59 857Q31 885 31 924ZM0 -249H500V1H0V-249ZM281 -124Q281 -88 308 -58Q336 -30 375 -30Q410 -30 439 -57T469 -124Q469 -159 442 -188T375 -218Q339 -218 309 -191Q281 -163 281 -124ZM31 -124Q31 -88 58
-58Q86 -30 125 -30Q160 -30 189 -57T219 -124Q219 -159 192 -188T125 -218Q89 -218 59 -191Q31 -163 31 -124ZM207 753V266Q252 296 282 351Q297 379 305 410T313 479V753H390V483Q390 411 372 360T313 269Q351 256 370 231T390 169V50H313V163Q313 181 307 188T280
196H207V50H131V196H65L22 266H131V753H207Z" />
<glyph unicode="l" glyph-name="l" horiz-adv-x="500" d="M0 799H500V1049H0V799ZM281 924Q281 959 308 988T375 1018Q410 1018 439 991T469 924Q469 888 442 858Q414 830 375 830Q339 830 309 857Q281 885 281 924ZM31 924Q31 959 58 988T125 1018Q160 1018 189
991T219 924Q219 888 192 858Q164 830 125 830Q89 830 59 857Q31 885 31 924ZM0 -249H500V1H0V-249ZM281 -124Q281 -88 308 -58Q336 -30 375 -30Q410 -30 439 -57T469 -124Q469 -159 442 -188T375 -218Q339 -218 309 -191Q281 -163 281 -124ZM31 -124Q31 -88 58
-58Q86 -30 125 -30Q160 -30 189 -57T219 -124Q219 -159 192 -188T125 -218Q89 -218 59 -191Q31 -163 31 -124ZM234 753V175Q234 143 242 135T281 126H365V50H272Q211 50 183 82Q157 116 157 167V753H234Z" />
<glyph unicode="m" glyph-name="m" horiz-adv-x="740" d="M0 799H740V1049H0V799ZM281 924Q281 959 308 988T375 1018Q410 1018 439 991T469 924Q469 888 442 858Q414 830 375 830Q339 830 309 857Q281 885 281 924ZM31 924Q31 959 58 988T125 1018Q160 1018 189
991T219 924Q219 888 192 858Q164 830 125 830Q89 830 59 857Q31 885 31 924ZM0 -249H740V1H0V-249ZM281 -124Q281 -88 308 -58Q336 -30 375 -30Q410 -30 439 -57T469 -124Q469 -159 442 -188T380 -218Q359 -218 343 -212T309 -190Q281 -164 281 -124ZM31 -124Q31
-88 58 -58Q86 -30 125 -30Q160 -30 189 -57T219 -124Q219 -159 192 -188T125 -218Q89 -218 59 -191Q31 -163 31 -124ZM286 761Q313 761 333 751Q345 748 350 743L369 729Q382 740 405 750T453 761Q504 761 536 729T568 641V40H492V638Q492 661 481 673T451 685Q430
685 418 672Q408 659 408 637V40H332V637Q332 657 322 670L308 681L290 685Q270 685 259 671Q248 660 248 639V40H172V642Q172 693 203 727T286 761ZM516 -124Q516 -88 543 -58Q571 -30 610 -30Q645 -30 674 -57T704 -124Q704 -159 677 -188T615 -218Q594 -218
578 -212T544 -190Q516 -164 516 -124ZM521 921Q521 956 548 985T615 1015Q650 1015 679 988T709 921Q709 885 682 855Q654 827 620 827Q600 827 583 833T549 855Q521 881 521 921Z" />
<glyph unicode="n" glyph-name="n" horiz-adv-x="500" d="M0 799H500V1049H0V799ZM281 924Q281 959 308 988T375 1018Q410 1018 439 991T469 924Q469 888 442 858Q414 830 375 830Q339 830 309 857Q281 885 281 924ZM31 924Q31 959 58 988T125 1018Q160 1018 189
991T219 924Q219 888 192 858Q164 830 125 830Q89 830 59 857Q31 885 31 924ZM0 -249H500V1H0V-249ZM281 -124Q281 -88 308 -58Q336 -30 375 -30Q410 -30 439 -57T469 -124Q469 -159 442 -188T375 -218Q339 -218 309 -191Q281 -163 281 -124ZM31 -124Q31 -88 58
-58Q86 -30 125 -30Q160 -30 189 -57T219 -124Q219 -159 192 -188T125 -218Q89 -218 59 -191Q31 -163 31 -124ZM123 770L291 478V733H368V30H291V339L199 489V30H123V770Z" />
<glyph unicode="o" glyph-name="o" horiz-adv-x="500" d="M0 799H500V1049H0V799ZM281 924Q281 959 308 988T375 1018Q410 1018 439 991T469 924Q469 888 442 858Q414 830 375 830Q339 830 309 857Q281 885 281 924ZM31 924Q31 959 58 988T125 1018Q160 1018 189
991T219 924Q219 888 192 858Q164 830 125 830Q89 830 59 857Q31 885 31 924ZM0 -249H500V1H0V-249ZM281 -124Q281 -88 308 -58Q336 -30 375 -30Q410 -30 439 -57T469 -124Q469 -159 442 -188T375 -218Q339 -218 309 -191Q281 -163 281 -124ZM31 -124Q31 -88 58
-58Q86 -30 125 -30Q160 -30 189 -57T219 -124Q219 -159 192 -188T125 -218Q89 -218 59 -191Q31 -163 31 -124ZM246 771Q304 771 337 733T371 646V153Q371 97 334 64Q297 33 246 33Q186 33 153 67T119 151V647Q119 704 155 737T246 771ZM245 695Q220 695 208 680T195
633V170Q195 139 206 125T247 110Q273 110 284 125T295 171V636Q295 666 283 680T245 695Z" />
<glyph unicode="p" glyph-name="p" horiz-adv-x="500" d="M0 799H500V1049H0V799ZM281 924Q281 959 308 988T375 1018Q410 1018 439 991T469 924Q469 888 442 858Q414 830 375 830Q339 830 309 857Q281 885 281 924ZM31 924Q31 959 58 988T125 1018Q160 1018 189
991T219 924Q219 888 192 858Q164 830 125 830Q89 830 59 857Q31 885 31 924ZM0 -249H500V1H0V-249ZM281 -124Q281 -88 308 -58Q336 -30 375 -30Q410 -30 439 -57T469 -124Q469 -159 442 -188T375 -218Q339 -218 309 -191Q281 -163 281 -124ZM31 -124Q31 -88 58
-58Q86 -30 125 -30Q160 -30 189 -57T219 -124Q219 -159 192 -188T125 -218Q89 -218 59 -191Q31 -163 31 -124ZM129 773Q238 740 310 659Q345 619 363 569T381 459Q381 431 378 408T367 360Q353 314 326 278Q276 209 205 171V40H129V773ZM205 259Q234 277 269 327T305
450Q305 522 274 573T205 650V259Z" />
<glyph unicode="q" glyph-name="q" horiz-adv-x="500" d="M0 799H500V1049H0V799ZM281 924Q281 959 308 988T375 1018Q410 1018 439 991T469 924Q469 888 442 858Q414 830 375 830Q339 830 309 857Q281 885 281 924ZM31 924Q31 959 58 988T125 1018Q160 1018 189
991T219 924Q219 888 192 858Q164 830 125 830Q89 830 59 857Q31 885 31 924ZM0 -249H500V1H0V-249ZM281 -124Q281 -88 308 -58Q336 -30 375 -30Q410 -30 439 -57T469 -124Q469 -159 442 -188T375 -218Q339 -218 309 -191Q281 -163 281 -124ZM31 -124Q31 -88 58
-58Q86 -30 125 -30Q160 -30 189 -57T219 -124Q219 -159 192 -188T125 -218Q89 -218 59 -191Q31 -163 31 -124ZM246 766Q304 766 338 728T372 628V331Q372 282 359 246T319 183L302 170L288 158Q310 135 326 126Q341 120 372 114V38Q332 38 299 54Q267 67 247 87Q230
106 211 115Q209 116 203 117T183 119L158 120V196Q230 196 262 237T295 337V627Q295 656 283 674Q270 690 246 690Q224 690 210 676T196 628V263H119V629Q119 693 154 729T246 766Z" />
<glyph unicode="r" glyph-name="r" horiz-adv-x="500" d="M0 799H500V1049H0V799ZM281 924Q281 959 308 988T375 1018Q410 1018 439 991T469 924Q469 888 442 858Q414 830 375 830Q339 830 309 857Q281 885 281 924ZM31 924Q31 959 58 988T125 1018Q160 1018 189
991T219 924Q219 888 192 858Q164 830 125 830Q89 830 59 857Q31 885 31 924ZM0 -249H500V1H0V-249ZM281 -124Q281 -88 308 -58Q336 -30 375 -30Q410 -30 439 -57T469 -124Q469 -159 442 -188T375 -218Q339 -218 309 -191Q281 -163 281 -124ZM31 -124Q31 -88 58
-58Q86 -30 125 -30Q160 -30 189 -57T219 -124Q219 -159 192 -188T125 -218Q89 -218 59 -191Q31 -163 31 -124ZM126 773Q235 743 306 660Q339 620 358 568T378 458Q378 399 358 352Q342 304 298 256Q339 256 358 232T378 168V40H302V155Q302 172 295 178T270 186H202V40H126V186H60L17
256H126V773ZM202 256Q236 276 268 326Q284 349 293 380T302 450Q302 480 301 490T294 517Q286 546 269 575Q237 627 202 650V256Z" />
<glyph unicode="s" glyph-name="s" horiz-adv-x="500" d="M0 799H500V1049H0V799ZM281 924Q281 959 308 988T375 1018Q410 1018 439 991T469 924Q469 888 442 858Q414 830 375 830Q339 830 309 857Q281 885 281 924ZM31 924Q31 959 58 988T125 1018Q160 1018 189
991T219 924Q219 888 192 858Q164 830 125 830Q89 830 59 857Q31 885 31 924ZM0 -249H500V1H0V-249ZM281 -124Q281 -88 308 -58Q336 -30 375 -30Q410 -30 439 -57T469 -124Q469 -159 442 -188T375 -218Q339 -218 309 -191Q281 -163 281 -124ZM31 -124Q31 -88 58
-58Q86 -30 125 -30Q160 -30 189 -57T219 -124Q219 -159 192 -188T125 -218Q89 -218 59 -191Q31 -163 31 -124ZM343 748Q282 684 261 621Q253 595 248 566L244 520Q244 478 256 440L265 411L284 369Q293 352 299 337T313 299Q327 262 327 218Q327 188 324 166T313
121Q301 77 282 45H185Q216 81 233 125T251 215Q251 235 248 252T237 288L224 321Q217 339 208 354L193 388L179 427Q167 468 167 522Q167 539 167 551T171 585Q174 613 187 646Q196 673 209 699T240 748H343Z" />
<glyph unicode="t" glyph-name="t" horiz-adv-x="500" d="M0 799H500V1049H0V799ZM281 924Q281 959 308 988T375 1018Q410 1018 439 991T469 924Q469 888 442 858Q414 830 375 830Q339 830 309 857Q281 885 281 924ZM31 924Q31 959 58 988T125 1018Q160 1018 189
991T219 924Q219 888 192 858Q164 830 125 830Q89 830 59 857Q31 885 31 924ZM0 -249H500V1H0V-249ZM281 -124Q281 -88 308 -58Q336 -30 375 -30Q410 -30 439 -57T469 -124Q469 -159 442 -188T375 -218Q339 -218 309 -191Q281 -163 281 -124ZM31 -124Q31 -88 58
-58Q86 -30 125 -30Q160 -30 189 -57T219 -124Q219 -159 192 -188T125 -218Q89 -218 59 -191Q31 -163 31 -124ZM368 748V671H284V45H207V671H124V748H368Z" />
<glyph unicode="u" glyph-name="u" horiz-adv-x="500" d="M0 799H500V1049H0V799ZM281 924Q281 959 308 988T375 1018Q410 1018 439 991T469 924Q469 888 442 858Q414 830 375 830Q339 830 309 857Q281 885 281 924ZM31 924Q31 959 58 988T125 1018Q160 1018 189
991T219 924Q219 888 192 858Q164 830 125 830Q89 830 59 857Q31 885 31 924ZM0 -249H500V1H0V-249ZM281 -124Q281 -88 308 -58Q336 -30 375 -30Q410 -30 439 -57T469 -124Q469 -159 442 -188T375 -218Q339 -218 309 -191Q281 -163 281 -124ZM31 -124Q31 -88 58
-58Q86 -30 125 -30Q160 -30 189 -57T219 -124Q219 -159 192 -188T125 -218Q89 -218 59 -191Q31 -163 31 -124ZM375 753V160Q375 95 336 63Q297 33 251 33Q196 33 161 65T126 165V753H202V170Q202 140 213 123Q225 108 251 108Q273 108 286 122T299 169V753H375Z"
/>
<glyph unicode="v" glyph-name="v" horiz-adv-x="500" d="M0 799H500V1049H0V799ZM281 924Q281 959 308 988T375 1018Q410 1018 439 991T469 924Q469 888 442 858Q414 830 375 830Q339 830 309 857Q281 885 281 924ZM31 924Q31 959 58 988T125 1018Q160 1018 189
991T219 924Q219 888 192 858Q164 830 125 830Q89 830 59 857Q31 885 31 924ZM0 -249H500V1H0V-249ZM281 -124Q281 -88 308 -58Q336 -30 375 -30Q410 -30 439 -57T469 -124Q469 -159 442 -188T375 -218Q339 -218 309 -191Q281 -163 281 -124ZM31 -124Q31 -88 58
-58Q86 -30 125 -30Q160 -30 189 -57T219 -124Q219 -159 192 -188T125 -218Q89 -218 59 -191Q31 -163 31 -124ZM93 763H171L203 578L236 385L273 582L305 763H382L238 12L93 763Z" />
<glyph unicode="w" glyph-name="w" horiz-adv-x="500" d="M0 799H500V1049H0V799ZM281 924Q281 959 308 988T375 1018Q410 1018 439 991T469 924Q469 888 442 858Q414 830 375 830Q339 830 309 857Q281 885 281 924ZM31 924Q31 959 58 988T125 1018Q160 1018 189
991T219 924Q219 888 192 858Q164 830 125 830Q89 830 59 857Q31 885 31 924ZM0 -249H500V1H0V-249ZM281 -124Q281 -88 308 -58Q336 -30 375 -30Q410 -30 439 -57T469 -124Q469 -159 442 -188T375 -218Q339 -218 309 -191Q281 -163 281 -124ZM31 -124Q31 -88 58
-58Q86 -30 125 -30Q160 -30 189 -57T219 -124Q219 -159 192 -188T125 -218Q89 -218 59 -191Q31 -163 31 -124ZM31 758H113L127 674L144 572L162 471L177 388L218 602L253 788L269 700L289 592L310 483L328 388L344 478L361 578L378 676L393 758H472L333 7L252
408L235 326L215 216L195 101L179 7L31 758Z" />
<glyph unicode="x" glyph-name="x" horiz-adv-x="500" d="M0 799H500V1049H0V799ZM281 924Q281 959 308 988T375 1018Q410 1018 439 991T469 924Q469 888 442 858Q414 830 375 830Q339 830 309 857Q281 885 281 924ZM31 924Q31 959 58 988T125 1018Q160 1018 189
991T219 924Q219 888 192 858Q164 830 125 830Q89 830 59 857Q31 885 31 924ZM0 -249H500V1H0V-249ZM281 -124Q281 -88 308 -58Q336 -30 375 -30Q410 -30 439 -57T469 -124Q469 -159 442 -188T375 -218Q339 -218 309 -191Q281 -163 281 -124ZM31 -124Q31 -88 58
-58Q86 -30 125 -30Q160 -30 189 -57T219 -124Q219 -159 192 -188T125 -218Q89 -218 59 -191Q31 -163 31 -124ZM123 748H197L257 522L317 748H391L369 661L347 579L319 473L303 417L301 407L300 397L304 374L321 312L350 203L391 45H318L258 271L243 222L226 160L209
97L197 45H123L141 120L168 222L196 328L211 380L215 396L210 418L193 480L163 587L123 748Z" />
<glyph unicode="y" glyph-name="y" horiz-adv-x="500" d="M0 799H500V1049H0V799ZM281 924Q281 959 308 988T375 1018Q410 1018 439 991T469 924Q469 888 442 858Q414 830 375 830Q339 830 309 857Q281 885 281 924ZM31 924Q31 959 58 988T125 1018Q160 1018 189
991T219 924Q219 888 192 858Q164 830 125 830Q89 830 59 857Q31 885 31 924ZM0 -249H500V1H0V-249ZM281 -124Q281 -88 308 -58Q336 -30 375 -30Q410 -30 439 -57T469 -124Q469 -159 442 -188T375 -218Q339 -218 309 -191Q281 -163 281 -124ZM31 -124Q31 -88 58
-58Q86 -30 125 -30Q160 -30 189 -57T219 -124Q219 -159 192 -188T125 -218Q89 -218 59 -191Q31 -163 31 -124ZM122 748H198V327Q198 300 210 283Q222 269 247 269Q272 269 284 284T296 325V748H372V320Q372 278 351 243Q333 210 285 195V45H209V195Q159 212 141
247T122 322V748Z" />
<glyph unicode="z" glyph-name="z" horiz-adv-x="500" d="M0 799H500V1049H0V799ZM281 924Q281 959 308 988T375 1018Q410 1018 439 991T469 924Q469 888 442 858Q414 830 375 830Q339 830 309 857Q281 885 281 924ZM31 924Q31 959 58 988T125 1018Q160 1018 189
991T219 924Q219 888 192 858Q164 830 125 830Q89 830 59 857Q31 885 31 924ZM0 -249H500V1H0V-249ZM281 -124Q281 -88 308 -58Q336 -30 375 -30Q410 -30 439 -57T469 -124Q469 -159 442 -188T375 -218Q339 -218 309 -191Q281 -163 281 -124ZM31 -124Q31 -88 58
-58Q86 -30 125 -30Q160 -30 189 -57T219 -124Q219 -159 192 -188T125 -218Q89 -218 59 -191Q31 -163 31 -124ZM137 748H372L216 121H361V45H120L274 671H137V748Z" />
<glyph unicode="{" glyph-name="braceleft" horiz-adv-x="625" d="M599 925Q599 962 572 992Q542 1019 505 1019Q469 1019 439 992Q412 965 412 925Q412 889 439 859Q466 832 505 832Q542 832 572 859Q599 889 599 925ZM377 922Q377 959 349 987T283 1015Q244
1015 217 988T189 922Q189 883 217 855Q247 828 283 828Q322 828 349 856T377 922ZM218 281Q218 316 191 345T124 375Q88 375 58 348Q30 320 30 281Q30 245 57 215Q85 187 124 187Q159 187 188 214T218 281ZM599 -125Q599 -89 572 -59Q543 -32 505 -32Q468 -32
439 -59Q412 -88 412 -125Q412 -144 418 -159T439 -192Q468 -219 505 -219Q540 -219 572 -192Q599 -163 599 -125ZM220 765Q220 802 193 832Q163 859 127 859Q90 859 60 832Q33 802 33 765Q33 729 60 699Q87 672 127 672Q163 672 193 699Q220 726 220 765ZM377
-122Q377 -84 349 -56T283 -28Q247 -28 217 -55Q189 -83 189 -122Q189 -157 216 -187Q244 -215 283 -215Q321 -215 349 -187T377 -122ZM220 35Q220 72 193 101Q164 128 127 128Q108 128 93 122T60 101Q33 72 33 35Q33 0 60 -32Q89 -59 127 -59Q163 -59 193 -32Q220
-3 220 35ZM218 529Q218 568 190 595T124 623Q85 623 58 595T30 529Q30 490 58 463T124 435Q163 435 190 463T218 529ZM249 126V105L252 88Q255 53 278 30Q296 12 350 3L374 1H624V-249H312Q284 -249 268 -245Q168 -227 93 -155Q39 -102 12 -12L3 25L-1 63V414V737Q-1
762 3 779L12 812Q25 859 44 892T93 955Q167 1027 268 1045L312 1049H624V799H374L350 797Q296 791 276 769T252 712L249 685V674V404V126Z" />
<glyph unicode="|" glyph-name="bar" horiz-adv-x="250" d="M0 799H250V1049H0V799ZM31 924Q31 959 58 988T125 1018Q160 1018 189 991T219 924Q219 888 192 858Q164 830 125 830Q89 830 59 857Q31 885 31 924ZM0 -249H250V1H0V-249ZM31 -124Q31 -88 58 -58Q86
-30 125 -30Q160 -30 189 -57T219 -124Q219 -159 192 -188T125 -218Q89 -218 59 -191Q31 -163 31 -124ZM155 758V55H79V758H155Z" />
<glyph unicode="}" glyph-name="braceright" horiz-adv-x="740" d="M627 63Q627 38 623 21L614 -12Q602 -56 581 -91Q564 -124 533 -155Q459 -227 358 -245L314 -249H2V1H252L276 3Q330 11 349 31T374 88L376 107L377 126V404V674V685L374 712Q371 745 351 766T276
797L252 799H2V1049H314Q342 1049 358 1045Q458 1027 533 955Q587 902 614 812L623 774L627 737V414V63ZM593 765Q593 800 566 832Q537 859 499 859Q463 859 433 832Q406 803 406 765Q406 728 433 699Q462 672 499 672Q518 672 533 678T566 699Q593 728 593 765ZM437
922Q437 958 409 986T343 1015Q305 1015 277 987T249 922Q249 885 276 857T343 828Q379 828 409 855Q437 883 437 922ZM214 925Q214 944 208 959T187 992Q158 1019 121 1019Q86 1019 54 992Q27 963 27 925Q27 889 54 859Q83 832 121 832Q158 832 187 859Q214 888
214 925ZM596 529Q596 564 569 593T502 623Q466 623 436 596Q408 568 408 529Q408 493 435 463Q463 435 502 435Q537 435 566 462T596 529ZM596 281Q596 320 568 347T502 375Q463 375 436 347T408 281Q408 242 436 215T502 187Q541 187 568 215T596 281ZM593 35Q593
71 566 101Q539 128 499 128Q463 128 433 101Q406 74 406 35Q406 -2 433 -32Q463 -59 499 -59Q536 -59 566 -32Q593 -2 593 35ZM437 -122Q437 -83 409 -55Q379 -28 343 -28Q304 -28 277 -55T249 -122Q249 -159 277 -187T343 -215Q382 -215 409 -187T437 -122ZM214
-125Q214 -89 187 -59Q160 -32 121 -32Q84 -32 54 -59Q27 -89 27 -125Q27 -162 54 -192Q84 -219 121 -219Q157 -219 187 -192Q214 -165 214 -125Z" />
<glyph unicode="~" glyph-name="asciitilde" horiz-adv-x="500" d="M0 799H500V1049H0V799ZM281 924Q281 959 308 988T375 1018Q410 1018 439 991T469 924Q469 888 442 858Q414 830 375 830Q339 830 309 857Q281 885 281 924ZM31 924Q31 959 58 988T125 1018Q160
1018 189 991T219 924Q219 888 192 858Q164 830 125 830Q89 830 59 857Q31 885 31 924ZM0 -249H500V1H0V-249ZM281 -124Q281 -88 308 -58Q336 -30 375 -30Q410 -30 439 -57T469 -124Q469 -159 442 -188T375 -218Q339 -218 309 -191Q281 -163 281 -124ZM31 -124Q31
-88 58 -58Q86 -30 125 -30Q160 -30 189 -57T219 -124Q219 -159 192 -188T125 -218Q89 -218 59 -191Q31 -163 31 -124ZM147 616Q184 616 212 606T262 583L290 568L311 559L338 550L362 548Q390 548 413 569Q424 580 433 590T452 612L495 561Q481 536 450 505Q445
500 437 494T412 481T367 474Q338 474 305 484L250 508L199 531Q174 542 149 542Q116 542 97 523T60 476L14 526Q35 564 67 590T147 616Z" />
<glyph unicode="" glyph-name="DEL" horiz-adv-x="500" />
</font>
</defs>
</svg>
